<svg width="201" height="439" viewBox="0 0 201 439" fill="none" xmlns="http://www.w3.org/2000/svg">
<path d="M19.1868 153.966L98.8196 194.195L177.187 153.977V2.88963H19.1868V153.966Z" fill="#26AD04" stroke="#001A23" stroke-width="5"/>
<path d="M133.656 104C133.656 114.933 129.173 124.828 120.208 133.684C111.352 142.54 99.9813 146.968 86.096 146.968C76.3653 146.968 67.4 144.891 59.2 140.736L69.204 124.992C74.3427 127.616 80.028 128.928 86.26 128.928C94.3507 129.147 101.403 126.523 107.416 121.056C113.539 115.589 116.6 109.795 116.6 103.672C116.709 98.424 114.905 93.996 111.188 90.388C107.58 86.78 102.988 84.976 97.412 84.976C90.3053 84.8667 83.964 88.092 78.388 94.652L62.808 88.748L64.612 35.12H127.752V52.504H81.504L80.848 71.364C86.2053 68.5213 91.672 67.1 97.248 67.1C107.635 67.3187 116.272 70.872 123.16 77.76C130.157 84.648 133.656 93.3947 133.656 104Z" fill="white"/>
</svg>
