<svg width="42" height="65" viewBox="0 0 42 65" fill="none" xmlns="http://www.w3.org/2000/svg">
<path d="M41 55C41 57.1528 39.1324 59.4001 35.4193 61.1682C31.7808 62.9008 26.684 64 21 64C15.316 64 10.2192 62.9008 6.58069 61.1682C2.86761 59.4001 1 57.1528 1 55C1 52.8472 2.86761 50.5999 6.58069 48.8318C10.2192 47.0992 15.316 46 21 46C26.684 46 31.7808 47.0992 35.4193 48.8318C39.1324 50.5999 41 52.8472 41 55Z" fill="#CDF6FF" stroke="black" stroke-width="2"/>
<path d="M41 54C41 54.9045 40.5765 55.8498 39.638 56.8008C38.6952 57.7561 37.2813 58.6622 35.4553 59.4448C31.8068 61.0084 26.6968 62 21 62C15.3032 62 10.1932 61.0084 6.54468 59.4448C4.71866 58.6622 3.30483 57.7561 2.36203 56.8008C1.42348 55.8498 1 54.9045 1 54C1 53.0955 1.42348 52.1502 2.36203 51.1992C3.30483 50.2439 4.71866 49.3378 6.54468 48.5552C10.1932 46.9915 15.3032 46 21 46C26.6968 46 31.8068 46.9915 35.4553 48.5552C37.2813 49.3378 38.6952 50.2439 39.638 51.1992C40.5765 52.1502 41 53.0955 41 54Z" fill="#CDF6FF" stroke="black" stroke-width="2"/>
<path d="M13.6354 38.35L16.0354 37.15H27.4585L25.4585 38.35H13.6354Z" fill="#C4C4C4" stroke="black" stroke-width="0.3"/>
<path d="M13.2049 38.1181L9.25734 6.04433L11.8429 0.873143L15.7328 36.8541L13.2049 38.1181Z" fill="#C4C4C4" stroke="black" stroke-width="0.5"/>
<path d="M11.2782 52.3596L13.2207 41.19L15.6953 40.3651L13.8016 53.6213L11.2782 52.3596Z" fill="#C4C4C4" stroke="black" stroke-width="0.5"/>
<path d="M15.1525 53.0457L16.8677 41H27.1323L28.8475 53.0457H15.1525Z" fill="white" stroke="black" stroke-width="2"/>
<path d="M16.8977 36L13.1139 1H30.8861L27.1023 36H16.8977Z" fill="white" stroke="black" stroke-width="2"/>
</svg>
