<svg width="284" height="450" viewBox="0 0 284 450" fill="none" xmlns="http://www.w3.org/2000/svg">
<rect x="109" y="250" width="80" height="200" fill="#C5D6D6"/>
<path d="M93.5 274L109 250V341H93.5V274Z" fill="#C4C4C4"/>
<path d="M117 356H143V371H117V356Z" fill="#001A23"/>
<rect x="154" y="356" width="26" height="15" fill="#001A23"/>
<path d="M117 325H143V340H117V325Z" fill="#001A23"/>
<rect x="154" y="325" width="26" height="15" fill="#001A23"/>
<path d="M117 294H143V309H117V294Z" fill="#001A23"/>
<rect x="154" y="294" width="26" height="15" fill="#001A23"/>
<path d="M117 263H143V278H117V263Z" fill="#001A23"/>
<rect x="154" y="263" width="26" height="15" fill="#001A23"/>
<path d="M117 387H143V402H117V387Z" fill="#001A23"/>
<rect x="154" y="387" width="26" height="15" fill="#001A23"/>
<path d="M117 418H143V433H117V418Z" fill="#001A23"/>
<rect x="154" y="418" width="26" height="15" fill="#001A23"/>
<path d="M4 370.5L19 340V450H4V370.5Z" fill="#C4C4C4"/>
<rect x="19.5" y="340.5" width="89" height="109" fill="#D4EFF5" stroke="#001A23"/>
<line x1="19" y1="361.5" x2="109" y2="361.5" stroke="#001A23"/>
<line x1="19" y1="384.5" x2="109" y2="384.5" stroke="#001A23"/>
<line x1="19" y1="407.5" x2="109" y2="407.5" stroke="#001A23"/>
<line x1="19" y1="428.5" x2="109" y2="428.5" stroke="#001A23"/>
<rect x="189.5" y="300.5" width="89" height="149" fill="#F1FAFC" stroke="#001A23"/>
<line x1="209" y1="319" x2="209" y2="342" stroke="#001A23" stroke-width="4"/>
<line x1="263" y1="319" x2="263" y2="342" stroke="#001A23" stroke-width="4"/>
<line x1="236" y1="319" x2="236" y2="342" stroke="#001A23" stroke-width="4"/>
<line x1="209" y1="360" x2="209" y2="383" stroke="#001A23" stroke-width="4"/>
<line x1="263" y1="360" x2="263" y2="383" stroke="#001A23" stroke-width="4"/>
<line x1="236" y1="360" x2="236" y2="383" stroke="#001A23" stroke-width="4"/>
<line x1="209" y1="399" x2="209" y2="422" stroke="#001A23" stroke-width="4"/>
<line x1="263" y1="399" x2="263" y2="422" stroke="#001A23" stroke-width="4"/>
<line x1="236" y1="399" x2="236" y2="422" stroke="#001A23" stroke-width="4"/>
<line x1="4.38599" y1="448" x2="279.386" y2="448" stroke="#001A23" stroke-width="4"/>
<line x1="2.38599" y1="450" x2="2.38599" y2="371" stroke="#001A23" stroke-width="4"/>
<path d="M2.38616 372L20.8862 337" stroke="#001A23" stroke-width="4"/>
<line x1="19.386" y1="338" x2="94.386" y2="338" stroke="#001A23" stroke-width="4"/>
<line x1="92.386" y1="341" x2="92.386" y2="275" stroke="#001A23" stroke-width="4"/>
<path d="M91.886 276L110.886 247" stroke="#001A23" stroke-width="4"/>
<line x1="109.386" y1="248" x2="189.386" y2="248" stroke="#001A23" stroke-width="4"/>
<path d="M190.386 246V301" stroke="#001A23" stroke-width="4"/>
<path d="M190.386 298H283.386" stroke="#001A23" stroke-width="4"/>
<line x1="281.386" y1="300" x2="281.386" y2="450" stroke="#001A23" stroke-width="4"/>
</svg>
