<svg width="208" height="450" viewBox="0 0 208 450" fill="none" xmlns="http://www.w3.org/2000/svg">
<path d="M7.68677 376.5L106.187 277.5L40.6868 383.5L7.68677 376.5Z" fill="#343434"/>
<path d="M68.1868 338L104.687 279L200.687 378L156.687 394L68.1868 338Z" fill="#6C6B6B"/>
<path d="M4.15125 373.338L106.187 271" stroke="#001A23" stroke-width="10"/>
<path d="M99.1866 271L204.167 374.409" stroke="#001A23" stroke-width="10"/>
<path d="M38.6868 360.047L48.6868 336V446H38.6868V360.047Z" fill="#C4C4C4"/>
<rect x="48.6868" y="336" width="110" height="110" fill="#D4EFF5"/>
<rect x="76.6868" y="362" width="56" height="56" fill="#FFA500" stroke="#001A23" stroke-width="4"/>
<path d="M74.6868 389.5H134.687" stroke="#001A23" stroke-width="5"/>
<line x1="105.187" y1="360" x2="105.187" y2="420" stroke="#001A23" stroke-width="5"/>
<line x1="160.665" y1="335.5" x2="48.6647" y2="334.517" stroke="#001A23" stroke-width="5"/>
<line x1="161.823" y1="389.654" x2="199.822" y2="375.654" stroke="#001A23" stroke-width="5"/>
<path d="M8 374L35.5 380" stroke="#001A23" stroke-width="5"/>
<line x1="48.002" y1="333.943" x2="37.002" y2="360.943" stroke="#001A23" stroke-width="5"/>
<line x1="37.1868" y1="360" x2="37.1868" y2="450" stroke="#001A23" stroke-width="5"/>
<line x1="161.187" y1="336" x2="161.187" y2="450" stroke="#001A23" stroke-width="5"/>
<line x1="38.6868" y1="447.5" x2="158.687" y2="447.5" stroke="#001A23" stroke-width="5"/>
</svg>
