<svg width="163" height="197" viewBox="0 0 163 197" fill="none" xmlns="http://www.w3.org/2000/svg">
<g filter="url(#filter0_b)">
<path d="M2.5 153.577L82.1328 193.805L160.5 153.588V2.49998H2.5V153.577Z" fill="#DEC806" fill-opacity="0.8" stroke="#001A23" stroke-width="5"/>
<path d="M35.194 35.0334C33.2616 32.0337 37.2454 28.7707 39.8057 31.2562L80.2021 70.4723C81.3657 71.6019 83.2164 71.6023 84.3805 70.4733L124.362 31.6943C126.904 29.2287 130.871 32.4306 128.996 35.4354L97.9761 85.1693C97.3774 86.1291 97.3696 87.3441 97.9558 88.3116L128.537 138.781C130.384 141.83 126.321 144.982 123.827 142.435L84.4069 102.162C83.2411 100.971 81.328 100.958 80.1467 102.134L40.3633 141.729C37.8225 144.257 33.7882 141.006 35.7198 137.986L67.4624 88.3564C68.0946 87.368 68.0926 86.1017 67.4571 85.1153L35.194 35.0334Z" fill="white"/>
</g>
<defs>
<filter id="filter0_b" x="-30" y="-30" width="223" height="256.61" filterUnits="userSpaceOnUse" color-interpolation-filters="sRGB">
<feFlood flood-opacity="0" result="BackgroundImageFix"/>
<feGaussianBlur in="BackgroundImage" stdDeviation="15"/>
<feComposite in2="SourceAlpha" operator="in" result="effect1_backgroundBlur"/>
<feBlend mode="normal" in="SourceGraphic" in2="effect1_backgroundBlur" result="shape"/>
</filter>
</defs>
</svg>
