<svg width="166" height="47" viewBox="0 0 166 47" fill="none" xmlns="http://www.w3.org/2000/svg">
    <path d="M101.515 37.6503L101.512 37.6502L87.551 37.1516L76.0883 34.1613L76.0745 34.1577L76.0605 34.1553L64.6173 32.1482L53.4958 0.85H64.1412L72.1881 16.6588L72.307 16.8923L72.5645 16.844L88.5589 13.8451L108.027 10.85H124.466L144.973 14.8428L144.976 14.8435L161.65 18.2851V30.7456L144.971 36.1555L124.983 38.15H113.008L101.515 37.6503Z" fill="url(#paint0_radial)" stroke="black" stroke-width="0.7"/>
    <path d="M71.3167 46.15L99.6378 29.9494L107.058 27.7852L116.5 27.3504L126.435 27.785L132.074 29.6828L97.92 46.15H71.3167Z" fill="url(#paint1_linear)" stroke="black" stroke-width="0.7"/>
    <path d="M53.2604 39.15L64.5488 32.357L67.7298 31.52L71.8149 31.3503L76.1107 31.5198L78.0694 32.1145L64.3269 39.15H53.2604Z" fill="#D14D2E" stroke="black" stroke-width="0.7"/>
    <path d="M133.624 13.2028C133.543 13.5281 133.262 13.8897 132.704 14.267C132.039 14.7164 131.053 15.1349 129.803 15.4919C127.309 16.2045 123.843 16.65 120 16.65C116.157 16.65 112.691 16.2045 110.197 15.4919C108.947 15.1349 107.961 14.7164 107.296 14.267C106.619 13.8093 106.35 13.3747 106.35 13C106.35 12.5586 106.517 12.1933 106.915 11.8716C107.331 11.5358 108.005 11.245 109.016 11.0127C111.035 10.5487 114.249 10.35 119 10.35C123.725 10.35 126.944 10.8474 129.221 11.4629C131.286 12.021 132.586 12.678 133.558 13.1692C133.58 13.1805 133.602 13.1917 133.624 13.2028Z" fill="#6F6F6F" stroke="black" stroke-width="0.7"/>
    <mask id="mask0" mask-type="alpha" maskUnits="userSpaceOnUse" x="106" y="10" width="28" height="7">
        <path d="M133.624 13.2028C133.543 13.5281 133.262 13.8897 132.704 14.267C132.039 14.7164 131.053 15.1349 129.803 15.4919C127.309 16.2045 123.843 16.65 120 16.65C116.157 16.65 112.691 16.2045 110.197 15.4919C108.947 15.1349 107.961 14.7164 107.296 14.267C106.619 13.8093 106.35 13.3747 106.35 13C106.35 12.5586 106.517 12.1933 106.915 11.8716C107.331 11.5358 108.005 11.245 109.016 11.0127C111.035 10.5487 114.249 10.35 119 10.35C123.725 10.35 126.944 10.8474 129.221 11.4629C131.286 12.021 132.586 12.678 133.558 13.1692C133.58 13.1805 133.602 13.1917 133.624 13.2028Z" fill="#6F6F6F" stroke="black" stroke-width="0.7"/>
    </mask>
    <g mask="url(#mask0)">
        <path d="M116.5 14.35H116.543L116.585 14.3396C118.548 13.8488 120.24 13.8179 121.42 14.0945C122.634 14.3789 123.15 14.9326 123.15 15.5C123.15 15.6586 123.158 15.818 123.165 15.9616C123.167 16.0141 123.17 16.0645 123.172 16.1119C123.18 16.299 123.18 16.45 123.161 16.579C123.143 16.7039 123.108 16.793 123.056 16.8629C123.005 16.9317 122.92 17.0058 122.76 17.072C122.423 17.2117 121.814 17.2925 120.726 17.2386C119.65 17.1852 118.149 17.0033 116.058 16.6548C114.925 16.4659 113.95 16.3181 113.119 16.1919C112.848 16.1507 112.592 16.1118 112.35 16.0746C111.363 15.9223 110.631 15.7988 110.088 15.6576C109.539 15.5146 109.241 15.3664 109.075 15.2013C108.929 15.0552 108.85 14.8582 108.85 14.5C108.85 14.3533 108.885 14.2714 108.927 14.2188C108.97 14.1629 109.05 14.104 109.198 14.0558C109.511 13.954 110.01 13.9369 110.719 13.9781C111.154 14.0034 111.659 14.0501 112.22 14.1022C113.426 14.2139 114.893 14.35 116.5 14.35Z" fill="#5B5B5B" stroke="black" stroke-width="0.7"/>
    </g>
    <path d="M118.649 7.5C118.649 8.95284 118.22 10.2539 117.544 11.1832C116.868 12.1129 115.964 12.65 114.999 12.65C114.034 12.65 113.13 12.1129 112.454 11.1832C111.778 10.2539 111.349 8.95284 111.349 7.5C111.349 6.04716 111.778 4.74607 112.454 3.81677C113.13 2.88713 114.034 2.35 114.999 2.35C115.964 2.35 116.868 2.88713 117.544 3.81677C118.22 4.74607 118.649 6.04716 118.649 7.5Z" fill="#FDCA9C" stroke="black" stroke-width="0.7"/>
    <path d="M119.149 5C119.149 5.15815 119.116 5.25184 119.08 5.30952C119.044 5.36539 118.988 5.41443 118.893 5.45448C118.682 5.54317 118.34 5.56328 117.857 5.52256C117.497 5.49217 117.099 5.43277 116.672 5.36893C116.538 5.34896 116.402 5.32855 116.262 5.30846C115.688 5.22562 115.078 5.15 114.499 5.15C113.228 5.15 112.383 6.01701 111.855 6.57097C111.836 6.59078 111.818 6.61009 111.8 6.62892C111.686 6.74827 111.591 6.84799 111.505 6.929C111.455 6.97517 111.417 7.00756 111.387 7.02991C111.371 6.99809 111.352 6.95275 111.331 6.88932C111.243 6.62452 111.276 6.1839 111.464 5.61849C111.647 5.06838 111.96 4.45675 112.351 3.88514C112.742 3.31321 113.203 2.79512 113.676 2.4238C114.156 2.04774 114.611 1.85 114.999 1.85C116.012 1.85 117.063 2.27544 117.861 2.90374C118.67 3.54014 119.149 4.32486 119.149 5Z" fill="#00091B" stroke="black" stroke-width="0.7"/>
    <path d="M164.85 24.5V12.35H165.15V36.65H164.85V25.5V25.15H164.5H162H161.65V25.5V30.7477L159.319 31.5247L158.851 24.5008L159.322 17.9084L161.65 18.2965V24.5V24.85H162H164.5H164.85V24.5Z" fill="#808080" stroke="black" stroke-width="0.7"/>
    <path d="M71.3507 46.15L74.5907 44.35H101.884L97.9242 46.15H71.3507Z" fill="#C4C4C4" stroke="black" stroke-width="0.7"/>
    <path d="M133.65 12.2407C133.65 12.9387 133.615 13.3468 133.36 13.7058C133.098 14.0767 132.559 14.451 131.373 14.9147C129.138 15.7884 127.171 16.3115 125.778 16.4496C125.076 16.5192 124.555 16.4869 124.226 16.3788C124.065 16.3257 123.972 16.2617 123.921 16.2042C123.876 16.1533 123.85 16.0918 123.85 16C123.85 15.7049 123.967 15.0409 124.192 14.1774C124.413 13.3277 124.728 12.3214 125.101 11.359C125.477 10.3932 125.905 9.48768 126.35 8.82993C126.572 8.5007 126.789 8.24739 126.995 8.07962C127.201 7.91086 127.369 7.85 127.5 7.85C127.902 7.85 128.491 8.03087 129.179 8.36201C129.857 8.68766 130.59 9.13896 131.268 9.63502C131.947 10.1316 132.558 10.6653 132.996 11.1517C133.215 11.3951 133.384 11.6194 133.496 11.8149C133.612 12.0164 133.65 12.1568 133.65 12.2407Z" fill="#C9FCFF" stroke="black" stroke-width="0.7"/>
    <path d="M71.9999 17L60 18.9999L0.979976 12.3495" stroke="black" stroke-width="0.7"/>
    <path d="M64.5002 32L1.01081 35.3184" stroke="black" stroke-width="0.7"/>
    <defs>
        <radialGradient id="paint0_radial" cx="0" cy="0" r="1" gradientUnits="userSpaceOnUse" gradientTransform="translate(107.5 19) rotate(90) scale(18.5 54.5)">
            <stop stop-color="#FF6F4E"/>
            <stop offset="1" stop-color="#D24C30"/>
        </radialGradient>
        <linearGradient id="paint1_linear" x1="101.5" y1="27" x2="101.5" y2="46.5" gradientUnits="userSpaceOnUse">
            <stop stop-color="#D14D2E"/>
            <stop offset="1" stop-color="#D8735C"/>
        </linearGradient>
    </defs>
</svg>
