<svg width="208" height="439" viewBox="0 0 208 439" fill="none" xmlns="http://www.w3.org/2000/svg">
<path d="M23.1868 153.966L102.82 194.195L181.187 153.977V2.88963H23.1868V153.966Z" fill="#26AD04" stroke="#001A23" stroke-width="5"/>
<path d="M138.656 104C138.656 114.933 134.173 124.828 125.208 133.684C116.352 142.54 104.981 146.968 91.096 146.968C81.3653 146.968 72.4 144.891 64.2 140.736L74.204 124.992C79.3427 127.616 85.028 128.928 91.26 128.928C99.3507 129.147 106.403 126.523 112.416 121.056C118.539 115.589 121.6 109.795 121.6 103.672C121.709 98.424 119.905 93.996 116.188 90.388C112.58 86.78 107.988 84.976 102.412 84.976C95.3053 84.8667 88.964 88.092 83.388 94.652L67.808 88.748L69.612 35.12H132.752V52.504H86.504L85.848 71.364C91.2053 68.5213 96.672 67.1 102.248 67.1C112.635 67.3187 121.272 70.872 128.16 77.76C135.157 84.648 138.656 93.3947 138.656 104Z" fill="white"/>
<path d="M7.68677 365.5L106.187 266.5L40.6868 372.5L7.68677 365.5Z" fill="#343434"/>
<path d="M68.1868 327L104.687 268L200.687 367L156.687 383L68.1868 327Z" fill="#6C6B6B"/>
<path d="M4.15125 362.338L106.187 260" stroke="#001A23" stroke-width="10"/>
<path d="M99.1866 260L204.167 363.409" stroke="#001A23" stroke-width="10"/>
<path d="M38.6868 349.047L48.6868 325V435H38.6868V349.047Z" fill="#C4C4C4"/>
<rect x="48.6868" y="325" width="110" height="110" fill="#D4EFF5"/>
<rect x="76.6868" y="351" width="56" height="56" fill="#FFA500" stroke="#001A23" stroke-width="4"/>
<path d="M74.6868 378.5H134.687" stroke="#001A23" stroke-width="5"/>
<line x1="105.187" y1="349" x2="105.187" y2="409" stroke="#001A23" stroke-width="5"/>
<line x1="160.665" y1="324.5" x2="48.6647" y2="323.517" stroke="#001A23" stroke-width="5"/>
<line x1="161.823" y1="378.654" x2="199.822" y2="364.654" stroke="#001A23" stroke-width="5"/>
<path d="M8 363L35.5 369" stroke="#001A23" stroke-width="5"/>
<line x1="48.002" y1="322.943" x2="37.002" y2="349.943" stroke="#001A23" stroke-width="5"/>
<line x1="37.1868" y1="349" x2="37.1868" y2="439" stroke="#001A23" stroke-width="5"/>
<line x1="161.187" y1="325" x2="161.187" y2="439" stroke="#001A23" stroke-width="5"/>
<line x1="38.6868" y1="436.5" x2="158.687" y2="436.5" stroke="#001A23" stroke-width="5"/>
</svg>
