<svg width="201" height="439" viewBox="0 0 201 439" fill="none" xmlns="http://www.w3.org/2000/svg">
<path d="M19.1865 153.577L98.8193 193.805L177.187 153.588V2.49998H19.1865V153.577Z" fill="#DEC806" stroke="#001A23" stroke-width="5"/>
<path d="M136.608 144.61H61.824C62.5893 118.48 75.7093 98.1983 101.184 83.7663C113.648 77.2063 119.661 71.029 119.224 65.2343C119.224 61.0797 117.42 57.6357 113.812 54.9023C110.313 52.169 105.721 50.693 100.036 50.4744C89.7587 51.2397 82.816 56.433 79.208 66.0543L61.824 60.9703C64.6667 53.0983 69.368 46.4837 75.928 41.1263C82.5973 35.6597 90.36 32.9263 99.216 32.9263C109.603 32.9263 118.404 36.097 125.62 42.4383C132.945 48.7797 136.608 56.1597 136.608 64.5783C136.28 78.4637 127.861 89.6703 111.352 98.1983C95.7173 107.273 86.3693 116.84 83.308 126.898H136.608V144.61Z" fill="white"/>
</svg>
