<svg width="201" height="439" viewBox="0 0 201 439" fill="none" xmlns="http://www.w3.org/2000/svg">
<path d="M19.1865 153.577L98.8193 193.805L177.187 153.588V2.49998H19.1865V153.577Z" fill="#A9AC04" stroke="#001A23" stroke-width="5"/>
<path d="M133.984 108.366C133.984 119.628 130.431 128.812 123.324 135.918C116.327 143.025 107.635 146.633 97.248 146.742C87.736 146.633 79.7 144.337 73.14 139.854C66.58 135.372 61.5507 128.648 58.052 119.682L75.928 113.942C80.6293 124.001 87.6267 128.976 96.92 128.866C102.715 128.866 107.416 127.062 111.024 123.454C114.741 119.737 116.6 115.09 116.6 109.514C116.491 99.893 111.516 94.481 101.676 93.2783H96.592V76.0583H101.676C108.783 76.0583 112.336 72.4503 112.336 65.2343C112.336 60.9703 110.805 57.4717 107.744 54.7383C104.683 52.005 100.965 50.6383 96.592 50.6383C89.2667 50.6383 83.472 54.465 79.208 62.1183L62.808 57.0343C64.776 50.693 68.8213 45.117 74.944 40.3063C81.176 35.4957 88.228 33.0357 96.1 32.9263C105.393 32.9263 113.32 36.2063 119.88 42.7663C126.44 49.217 129.72 57.089 129.72 66.3823C129.829 74.145 127.315 80.1037 122.176 84.2583C129.829 89.6157 133.765 97.6517 133.984 108.366Z" fill="white"/>
</svg>
