<svg width="16" height="16" viewBox="0 0 16 16" fill="none" xmlns="http://www.w3.org/2000/svg">
<path d="M5.53033 4.46967L5 3.93934L3.93934 5L4.46967 5.53033L5.53033 4.46967ZM10.4697 11.5303L11 12.0607L12.0607 11L11.5303 10.4697L10.4697 11.5303ZM4.46967 5.53033L10.4697 11.5303L11.5303 10.4697L5.53033 4.46967L4.46967 5.53033Z" fill="#212121"/>
<path d="M13 15C14.1046 15 15 14.1046 15 13C15 11.8954 14.1046 11 13 11C11.8954 11 11 11.8954 11 13C11 14.1046 11.8954 15 13 15Z" stroke="#212121" stroke-width="1.5" stroke-linecap="round" stroke-linejoin="round"/>
<path d="M3 5C4.10457 5 5 4.10457 5 3C5 1.89543 4.10457 1 3 1C1.89543 1 1 1.89543 1 3C1 4.10457 1.89543 5 3 5Z" stroke="#212121" stroke-width="1.5" stroke-linecap="round" stroke-linejoin="round"/>
</svg>
