<svg width="3840" height="2160" viewBox="0 0 3840 2160" fill="none" xmlns="http://www.w3.org/2000/svg">
<g clip-path="url(#clip0)">
<rect width="3840" height="2160" fill="white"/>
<rect width="3840" height="2160" fill="url(#paint0_radial)"/>
<g filter="url(#filter0_f)">
<path d="M3047.5 1265.5V1007H3149.5V1227H3513V976.5H3615V1293L1148 1265.5L181.5 1227V888.5H258.5V1147.5L333 1073L401.5 1007H476V872H616.5V1147.5L936 1139L947 872L963.5 1147.5H1148V946.5H1222L1236 1147.5L3047.5 1265.5Z" fill="#8B8B8B"/>
</g>
<g filter="url(#filter1_f)">
<path d="M1326.28 941.5H1404.53V727H1509.03V793H1690.53V969V1062.2H1779.03V727H1916.53V1129H1952.03V853.5H2065.03V1114L2844 1217L2915.5 340.5L2946 1217L3039.5 1089.5V830.5H3111V1216.67H3202V1089.5H3295.5L3334 1015L3378 1089.5H3447V888.5H3554.5V1089.5V1216.67L3579 1217V1015H3673V1216.67L3747 1217V1015L3846.5 927V1307H2915.5L2065.03 1217H1368.53H1211L35.5 1188.5V793H151V1129H228V969H432V1089.5H534V660H682.5V1089.5H743V910.5H836.5V1164H1092.5V1089.5H1211V813.157H1326.28V941.5Z" fill="#AFAEAE"/>
</g>
<rect x="1593.87" y="833.324" width="162.623" height="406.559" fill="#C5D6D6"/>
<path d="M1562.37 882.112L1593.87 833.325V1018.31H1562.37V882.112Z" fill="#C4C4C4"/>
<path d="M1610.14 1048.8H1662.99V1079.29H1610.14V1048.8Z" fill="#001A23"/>
<rect x="1685.35" y="1048.8" width="52.8526" height="30.4919" fill="#001A23"/>
<path d="M1610.14 985.784H1662.99V1016.28H1610.14V985.784Z" fill="#001A23"/>
<rect x="1685.35" y="985.783" width="52.8526" height="30.4919" fill="#001A23"/>
<path d="M1610.14 922.767H1662.99V953.259H1610.14V922.767Z" fill="#001A23"/>
<rect x="1685.35" y="922.767" width="52.8526" height="30.4919" fill="#001A23"/>
<path d="M1610.14 859.751H1662.99V890.243H1610.14V859.751Z" fill="#001A23"/>
<rect x="1685.35" y="859.75" width="52.8526" height="30.4919" fill="#001A23"/>
<path d="M1610.14 1111.82H1662.99V1142.31H1610.14V1111.82Z" fill="#001A23"/>
<rect x="1685.35" y="1111.82" width="52.8526" height="30.4919" fill="#001A23"/>
<path d="M1610.14 1174.83H1662.99V1205.32H1610.14V1174.83Z" fill="#001A23"/>
<rect x="1685.35" y="1174.83" width="52.8526" height="30.4919" fill="#001A23"/>
<path d="M1380.43 1078.28L1410.92 1016.28V1239.88H1380.43V1078.28Z" fill="#C4C4C4"/>
<rect x="1411.42" y="1016.78" width="181.951" height="222.607" fill="#D4EFF5" stroke="#001A23"/>
<line x1="1410.92" y1="1060.5" x2="1593.87" y2="1060.5" stroke="#001A23"/>
<line x1="1410.92" y1="1107.25" x2="1593.87" y2="1107.25" stroke="#001A23"/>
<line x1="1410.92" y1="1154.01" x2="1593.87" y2="1154.01" stroke="#001A23"/>
<line x1="1410.92" y1="1196.69" x2="1593.87" y2="1196.69" stroke="#001A23"/>
<rect x="1757" y="935.464" width="181.951" height="303.919" fill="#F1FAFC" stroke="#001A23"/>
<line x1="1795.09" y1="973.587" x2="1795.09" y2="1020.34" stroke="#001A23" stroke-width="4"/>
<line x1="1904.86" y1="973.586" x2="1904.86" y2="1020.34" stroke="#001A23" stroke-width="4"/>
<line x1="1849.97" y1="973.586" x2="1849.97" y2="1020.34" stroke="#001A23" stroke-width="4"/>
<line x1="1795.09" y1="1056.93" x2="1795.09" y2="1103.69" stroke="#001A23" stroke-width="4"/>
<line x1="1904.86" y1="1056.93" x2="1904.86" y2="1103.69" stroke="#001A23" stroke-width="4"/>
<line x1="1849.97" y1="1056.93" x2="1849.97" y2="1103.69" stroke="#001A23" stroke-width="4"/>
<line x1="1795.09" y1="1136.21" x2="1795.09" y2="1182.96" stroke="#001A23" stroke-width="4"/>
<line x1="1904.86" y1="1136.21" x2="1904.86" y2="1182.96" stroke="#001A23" stroke-width="4"/>
<line x1="1849.97" y1="1136.21" x2="1849.97" y2="1182.96" stroke="#001A23" stroke-width="4"/>
<line x1="1381.21" y1="1237.88" x2="1940.23" y2="1237.88" stroke="#001A23" stroke-width="4"/>
<line x1="1379.21" y1="1239.88" x2="1379.21" y2="1079.29" stroke="#001A23" stroke-width="4"/>
<path d="M1378.86 1081.13L1413.36 1013.13" stroke="#001A23" stroke-width="4"/>
<line x1="1411.71" y1="1014.28" x2="1564.17" y2="1014.28" stroke="#001A23" stroke-width="4"/>
<path d="M1562.17 1016.13V884.144" stroke="#001A23" stroke-width="4"/>
<path d="M1562.36 885.126L1596.86 830.626" stroke="#001A23" stroke-width="4"/>
<line x1="1594.66" y1="831.325" x2="1757.28" y2="831.325" stroke="#001A23" stroke-width="4"/>
<path d="M1758 830V937" stroke="#001A23" stroke-width="4"/>
<path d="M1756.36 935.126L1943 934.999" stroke="#001A23" stroke-width="4"/>
<line x1="1941" y1="937" x2="1941" y2="1241.92" stroke="#001A23" stroke-width="4"/>
<path d="M1512.63 660.931L1677.1 744.016L1838.98 660.942V349.653H1512.63V660.931Z" fill="#26AD04" stroke="#001A23" stroke-width="5"/>
<path d="M1756.44 562C1756.44 586 1746.6 607.72 1726.92 627.16C1707.48 646.6 1682.52 656.32 1652.04 656.32C1630.68 656.32 1611 651.76 1593 642.64L1614.96 608.08C1626.24 613.84 1638.72 616.72 1652.4 616.72C1670.16 617.2 1685.64 611.44 1698.84 599.44C1712.28 587.44 1719 574.72 1719 561.28C1719.24 549.76 1715.28 540.04 1707.12 532.12C1699.2 524.2 1689.12 520.24 1676.88 520.24C1661.28 520 1647.36 527.08 1635.12 541.48L1600.92 528.52L1604.88 410.8H1743.48V448.96H1641.96L1640.52 490.36C1652.28 484.12 1664.28 481 1676.52 481C1699.32 481.48 1718.28 489.28 1733.4 504.4C1748.76 519.52 1756.44 538.72 1756.44 562Z" fill="white"/>
<path d="M1305.32 1170.33L1305.52 1170.38L1305.74 1170.4L1923.51 1220.43L1923.84 1220.46L1924.16 1220.4L2372.6 1139.45H2782L3471.67 1189.9L3471.96 1189.92L3472.25 1189.88L3883.5 1123.77V2183.5H-5.5V1123.02L344.288 1075.41L806.761 1041.52L1305.32 1170.33Z" fill="#84CC63" stroke="#329C00" stroke-width="5"/>
<path d="M1963 1211.5L1488.11 1319.52L1317.15 1391.99L1287.66 1522.04L1488.11 1642.56L1893.02 1866.2L1966.01 2080.73L1835.53 2352L-265 2183.44L122.414 2080.73L487.833 1847.98L616.305 1642.56L681.5 1522.04L1010.72 1391.99L1287.66 1319.52L1963 1211.5Z" fill="#676D81"/>
<rect x="2033" y="1014" width="978" height="402.099" rx="33" fill="url(#paint1_linear)" stroke="#FFFDFD" stroke-width="10"/>
<path d="M2372.24 1123.1L2362.37 1170H2352.85L2344.8 1140.74L2336.75 1170H2327.37L2317.5 1123.1H2326.53L2332.62 1151.73L2340.53 1123.1H2349.21L2357.12 1151.73L2363.21 1123.1H2372.24ZM2415.01 1156.14H2386.66C2386.94 1157.63 2387.96 1159.08 2389.74 1160.48C2391.51 1161.83 2393.68 1162.51 2396.25 1162.51C2399.37 1162.65 2402.08 1161.81 2404.37 1159.99L2410.25 1165.87C2406.09 1169.04 2401.45 1170.63 2396.32 1170.63C2391.14 1170.63 2386.73 1168.88 2383.09 1165.38C2379.49 1161.88 2377.7 1157.66 2377.7 1152.71C2377.7 1147.76 2379.49 1143.59 2383.09 1140.18C2386.68 1136.77 2391.09 1135.07 2396.32 1135.07C2401.78 1135.07 2406.23 1137.08 2409.69 1141.09C2413.14 1145.1 2414.91 1150.12 2415.01 1156.14ZM2405.14 1148.3C2404.58 1147.04 2403.48 1145.87 2401.85 1144.8C2400.21 1143.73 2398.32 1143.19 2396.18 1143.19C2393.84 1143.24 2391.81 1143.8 2390.09 1144.87C2388.36 1145.94 2387.31 1147.09 2386.94 1148.3H2405.14ZM2432.98 1170H2424.09V1126.74L2432.98 1122.33V1170ZM2475.13 1164.4C2471.4 1168.55 2466.59 1170.63 2460.71 1170.63C2455.53 1170.63 2451.12 1168.9 2447.48 1165.45C2443.89 1162 2442.09 1157.82 2442.09 1152.92C2442.09 1147.97 2443.89 1143.8 2447.48 1140.39C2451.07 1136.98 2455.48 1135.28 2460.71 1135.28C2466.59 1135.28 2471.42 1137.61 2475.2 1142.28L2469.6 1147.88C2467.31 1145.08 2464.35 1143.68 2460.71 1143.68C2458.14 1143.68 2455.9 1144.57 2453.99 1146.34C2452.08 1148.07 2451.12 1150.26 2451.12 1152.92C2451.12 1155.63 2452.08 1157.84 2453.99 1159.57C2455.9 1161.25 2458.14 1162.09 2460.71 1162.09C2463.98 1162.14 2466.85 1160.97 2469.32 1158.59L2475.13 1164.4ZM2519.66 1152.92C2519.66 1157.91 2517.87 1162.11 2514.27 1165.52C2510.68 1168.93 2506.25 1170.63 2500.97 1170.63C2495.79 1170.63 2491.38 1168.9 2487.74 1165.45C2484.15 1162 2482.35 1157.82 2482.35 1152.92C2482.35 1147.97 2484.15 1143.8 2487.74 1140.39C2491.34 1136.98 2495.75 1135.28 2500.97 1135.28C2506.2 1135.28 2510.61 1136.98 2514.2 1140.39C2517.84 1143.8 2519.66 1147.97 2519.66 1152.92ZM2510.63 1152.92C2510.63 1150.26 2509.65 1148.07 2507.69 1146.34C2505.73 1144.57 2503.49 1143.68 2500.97 1143.68C2498.41 1143.68 2496.17 1144.57 2494.25 1146.34C2492.34 1148.07 2491.38 1150.26 2491.38 1152.92C2491.38 1155.63 2492.34 1157.84 2494.25 1159.57C2496.17 1161.25 2498.41 1162.09 2500.97 1162.09C2503.49 1162.09 2505.73 1161.23 2507.69 1159.5C2509.65 1157.73 2510.63 1155.53 2510.63 1152.92ZM2583.49 1170H2574.6V1151.1C2574.64 1148.86 2573.99 1147.02 2572.64 1145.57C2571.28 1144.08 2569.65 1143.33 2567.74 1143.33C2565.68 1143.33 2563.91 1144.01 2562.42 1145.36C2560.97 1146.71 2560.27 1148.63 2560.32 1151.1V1170H2551.57V1151.1C2551.57 1148.77 2550.84 1146.9 2549.4 1145.5C2548 1144.05 2546.25 1143.33 2544.15 1143.33C2542.14 1143.33 2540.51 1144.01 2539.25 1145.36C2537.99 1146.71 2537.33 1148.63 2537.29 1151.1V1170H2528.4V1135.77H2537.29V1138.22C2539.62 1136.17 2542.77 1135.14 2546.74 1135.14C2550.89 1135.14 2554.27 1136.77 2556.89 1140.04C2559.69 1136.77 2563.49 1135.14 2568.3 1135.14C2572.92 1135.23 2576.6 1136.75 2579.36 1139.69C2582.11 1142.63 2583.49 1146.43 2583.49 1151.1V1170ZM2629.52 1156.14H2601.17C2601.45 1157.63 2602.47 1159.08 2604.25 1160.48C2606.02 1161.83 2608.19 1162.51 2610.76 1162.51C2613.88 1162.65 2616.59 1161.81 2618.88 1159.99L2624.76 1165.87C2620.6 1169.04 2615.96 1170.63 2610.83 1170.63C2605.65 1170.63 2601.24 1168.88 2597.6 1165.38C2594 1161.88 2592.21 1157.66 2592.21 1152.71C2592.21 1147.76 2594 1143.59 2597.6 1140.18C2601.19 1136.77 2605.6 1135.07 2610.83 1135.07C2616.29 1135.07 2620.74 1137.08 2624.2 1141.09C2627.65 1145.1 2629.42 1150.12 2629.52 1156.14ZM2619.65 1148.3C2619.09 1147.04 2617.99 1145.87 2616.36 1144.8C2614.72 1143.73 2612.83 1143.19 2610.69 1143.19C2608.35 1143.24 2606.32 1143.8 2604.6 1144.87C2602.87 1145.94 2601.82 1147.09 2601.45 1148.3H2619.65ZM2681.31 1160.41L2678.44 1169.93C2676.9 1170.54 2675.41 1170.84 2673.96 1170.84C2671.26 1170.84 2669.06 1169.79 2667.38 1167.69C2665.75 1165.59 2664.93 1163.12 2664.93 1160.27V1143.82H2659.33V1135.98H2664.93V1126.74L2673.82 1122.33V1135.98H2681.38V1143.96H2673.82V1158.59C2673.87 1159.76 2674.15 1160.69 2674.66 1161.39C2675.22 1162.04 2675.97 1162.37 2676.9 1162.37C2678.4 1162.28 2679.87 1161.62 2681.31 1160.41ZM2725.77 1152.92C2725.77 1157.91 2723.97 1162.11 2720.38 1165.52C2716.78 1168.93 2712.35 1170.63 2707.08 1170.63C2701.9 1170.63 2697.49 1168.9 2693.85 1165.45C2690.25 1162 2688.46 1157.82 2688.46 1152.92C2688.46 1147.97 2690.25 1143.8 2693.85 1140.39C2697.44 1136.98 2701.85 1135.28 2707.08 1135.28C2712.3 1135.28 2716.71 1136.98 2720.31 1140.39C2723.95 1143.8 2725.77 1147.97 2725.77 1152.92ZM2716.74 1152.92C2716.74 1150.26 2715.76 1148.07 2713.8 1146.34C2711.84 1144.57 2709.6 1143.68 2707.08 1143.68C2704.51 1143.68 2702.27 1144.57 2700.36 1146.34C2698.44 1148.07 2697.49 1150.26 2697.49 1152.92C2697.49 1155.63 2698.44 1157.84 2700.36 1159.57C2702.27 1161.25 2704.51 1162.09 2707.08 1162.09C2709.6 1162.09 2711.84 1161.23 2713.8 1159.5C2715.76 1157.73 2716.74 1155.53 2716.74 1152.92ZM2218.05 1303H2202.81V1255.36L2174.61 1303L2146.17 1255.36V1303H2131.17V1222.6H2145.21L2174.61 1273.24L2203.65 1222.6H2218.05V1303ZM2298.97 1279.24H2250.37C2250.85 1281.8 2252.61 1284.28 2255.65 1286.68C2258.69 1289 2262.41 1290.16 2266.81 1290.16C2272.17 1290.4 2276.81 1288.96 2280.73 1285.84L2290.81 1295.92C2283.69 1301.36 2275.73 1304.08 2266.93 1304.08C2258.05 1304.08 2250.49 1301.08 2244.25 1295.08C2238.09 1289.08 2235.01 1281.84 2235.01 1273.36C2235.01 1264.88 2238.09 1257.72 2244.25 1251.88C2250.41 1246.04 2257.97 1243.12 2266.93 1243.12C2276.29 1243.12 2283.93 1246.56 2289.85 1253.44C2295.77 1260.32 2298.81 1268.92 2298.97 1279.24ZM2282.05 1265.8C2281.09 1263.64 2279.21 1261.64 2276.41 1259.8C2273.61 1257.96 2270.37 1257.04 2266.69 1257.04C2262.69 1257.12 2259.21 1258.08 2256.25 1259.92C2253.29 1261.76 2251.49 1263.72 2250.85 1265.8H2282.05ZM2373.58 1303H2357.98V1300.24C2353.02 1302.64 2346.74 1303.92 2339.14 1304.08C2331.14 1304.08 2324.7 1302.28 2319.82 1298.68C2315.02 1295 2312.62 1290.32 2312.62 1284.64C2312.62 1278.72 2315.3 1273.84 2320.66 1270C2326.02 1266.08 2332.74 1264.12 2340.82 1264.12C2346.5 1264.12 2352.3 1264.8 2358.22 1266.16C2358.22 1263.36 2357.14 1261.04 2354.98 1259.2C2352.82 1257.36 2349.42 1256.44 2344.78 1256.44C2337.42 1256.44 2330.66 1258.16 2324.5 1261.6L2318.74 1250.2C2325.94 1245.64 2334.62 1243.2 2344.78 1242.88C2353.98 1243.2 2361.06 1245.48 2366.02 1249.72C2370.98 1253.88 2373.5 1259.8 2373.58 1267.48V1303ZM2357.74 1287.64V1279.36C2351.66 1278.24 2345.82 1277.64 2340.22 1277.56C2336.3 1277.64 2332.94 1278.28 2330.14 1279.48C2327.34 1280.6 2325.98 1282.36 2326.06 1284.76C2325.9 1287.32 2327.18 1289.16 2329.9 1290.28C2332.7 1291.32 2335.98 1291.84 2339.74 1291.84C2346.3 1291.68 2352.3 1290.28 2357.74 1287.64ZM2446.27 1285.72C2446.19 1291.8 2443.67 1296.4 2438.71 1299.52C2433.83 1302.56 2426.35 1304.08 2416.27 1304.08C2405.39 1304.08 2395.31 1301.72 2386.03 1297L2392.15 1284.88C2399.91 1288.72 2407.95 1290.72 2416.27 1290.88C2423.23 1290.72 2427.47 1290.28 2428.99 1289.56C2430.59 1288.84 2431.43 1287.6 2431.51 1285.84C2431.35 1284.08 2430.43 1282.84 2428.75 1282.12C2427.15 1281.32 2423.07 1280.56 2416.51 1279.84C2407.95 1279.04 2401.19 1277.12 2396.23 1274.08C2391.35 1271.04 2388.95 1266.88 2389.03 1261.6C2388.87 1256.48 2391.23 1252.16 2396.11 1248.64C2401.07 1245.04 2407.79 1243.24 2416.27 1243.24C2425.55 1243.24 2434.55 1245.48 2443.27 1249.96L2437.39 1261.6C2431.55 1258.56 2424.51 1256.92 2416.27 1256.68C2410.11 1257 2406.39 1257.48 2405.11 1258.12C2403.83 1258.76 2403.19 1259.76 2403.19 1261.12C2403.11 1262.4 2403.79 1263.36 2405.23 1264C2406.67 1264.56 2410.47 1265.16 2416.63 1265.8C2426.87 1266.68 2434.35 1268.72 2439.07 1271.92C2443.79 1275.04 2446.19 1279.64 2446.27 1285.72ZM2459.71 1244.32H2474.95V1276.72C2474.95 1280.48 2476.27 1283.72 2478.91 1286.44C2481.63 1289.16 2485.19 1290.52 2489.59 1290.52C2493.43 1290.6 2496.79 1289.36 2499.67 1286.8C2502.63 1284.16 2504.15 1280.64 2504.23 1276.24V1244.32H2519.47V1303H2504.23V1298.2C2499.99 1302.12 2494.47 1304.08 2487.67 1304.08C2479.03 1303.92 2472.19 1301 2467.15 1295.32C2462.19 1289.64 2459.71 1283.44 2459.71 1276.72V1244.32ZM2579.2 1247.8L2572.36 1261.48C2570.36 1259 2567.68 1257.76 2564.32 1257.76C2560.88 1257.76 2558.04 1259.08 2555.8 1261.72C2553.64 1264.28 2552.6 1267.28 2552.68 1270.72V1303H2537.2V1244.32H2552.68V1249.12C2555.8 1245.36 2560.24 1243.48 2566 1243.48C2571.04 1243.48 2575.44 1244.92 2579.2 1247.8ZM2652.29 1279.24H2603.69C2604.17 1281.8 2605.93 1284.28 2608.97 1286.68C2612.01 1289 2615.73 1290.16 2620.13 1290.16C2625.49 1290.4 2630.13 1288.96 2634.05 1285.84L2644.13 1295.92C2637.01 1301.36 2629.05 1304.08 2620.25 1304.08C2611.37 1304.08 2603.81 1301.08 2597.57 1295.08C2591.41 1289.08 2588.33 1281.84 2588.33 1273.36C2588.33 1264.88 2591.41 1257.72 2597.57 1251.88C2603.73 1246.04 2611.29 1243.12 2620.25 1243.12C2629.61 1243.12 2637.25 1246.56 2643.17 1253.44C2649.09 1260.32 2652.13 1268.92 2652.29 1279.24ZM2635.37 1265.8C2634.41 1263.64 2632.53 1261.64 2629.73 1259.8C2626.93 1257.96 2623.69 1257.04 2620.01 1257.04C2616.01 1257.12 2612.53 1258.08 2609.57 1259.92C2606.61 1261.76 2604.81 1263.72 2604.17 1265.8H2635.37ZM2683.1 1303H2667.86V1228.84L2683.1 1221.28V1303ZM2761.12 1303H2745.52V1300.24C2740.56 1302.64 2734.28 1303.92 2726.68 1304.08C2718.68 1304.08 2712.24 1302.28 2707.36 1298.68C2702.56 1295 2700.16 1290.32 2700.16 1284.64C2700.16 1278.72 2702.84 1273.84 2708.2 1270C2713.56 1266.08 2720.28 1264.12 2728.36 1264.12C2734.04 1264.12 2739.84 1264.8 2745.76 1266.16C2745.76 1263.36 2744.68 1261.04 2742.52 1259.2C2740.36 1257.36 2736.96 1256.44 2732.32 1256.44C2724.96 1256.44 2718.2 1258.16 2712.04 1261.6L2706.28 1250.2C2713.48 1245.64 2722.16 1243.2 2732.32 1242.88C2741.52 1243.2 2748.6 1245.48 2753.56 1249.72C2758.52 1253.88 2761.04 1259.8 2761.12 1267.48V1303ZM2745.28 1287.64V1279.36C2739.2 1278.24 2733.36 1277.64 2727.76 1277.56C2723.84 1277.64 2720.48 1278.28 2717.68 1279.48C2714.88 1280.6 2713.52 1282.36 2713.6 1284.76C2713.44 1287.32 2714.72 1289.16 2717.44 1290.28C2720.24 1291.32 2723.52 1291.84 2727.28 1291.84C2733.84 1291.68 2739.84 1290.28 2745.28 1287.64ZM2836.81 1303H2821.57V1270.6C2821.57 1266.84 2820.21 1263.6 2817.49 1260.88C2814.85 1258.16 2811.33 1256.8 2806.93 1256.8C2803.09 1256.72 2799.69 1258 2796.73 1260.64C2793.85 1263.2 2792.37 1266.68 2792.29 1271.08V1303H2777.05V1244.32H2792.29V1249.12C2796.53 1245.2 2802.05 1243.24 2808.85 1243.24C2817.49 1243.4 2824.29 1246.32 2829.25 1252C2834.29 1257.68 2836.81 1263.88 2836.81 1270.6V1303ZM2916.7 1303H2901.46C2901.46 1300.92 2901.38 1299.88 2901.22 1299.88C2899.78 1300.92 2897.34 1301.88 2893.9 1302.76C2890.46 1303.64 2887.46 1304.08 2884.9 1304.08C2875.86 1304.08 2868.26 1301.16 2862.1 1295.32C2856.02 1289.48 2852.98 1282.28 2852.98 1273.72C2852.98 1265.24 2856.06 1258.08 2862.22 1252.24C2868.46 1246.4 2876.1 1243.48 2885.14 1243.48C2891.38 1243.48 2896.74 1244.8 2901.22 1247.44V1228.96L2916.7 1221.28V1303ZM2901.22 1263.52C2896.82 1259.84 2891.54 1258 2885.38 1258C2880.5 1258 2876.54 1259.24 2873.5 1261.72C2869.98 1264.52 2868.22 1268.52 2868.22 1273.72C2868.22 1278.68 2870.06 1282.64 2873.74 1285.6C2877.02 1288.24 2881.14 1289.56 2886.1 1289.56C2892.18 1289.56 2897.22 1287.64 2901.22 1283.8V1263.52Z" fill="white"/>
<line x1="2751.13" y1="2021" x2="2843" y2="2021" stroke="#027600" stroke-width="4"/>
<line x1="2201" y1="2021" x2="2292.87" y2="2021" stroke="#027600" stroke-width="4"/>
<rect x="2235.81" y="1421.5" width="21.1379" height="598.438" fill="url(#paint2_radial)" stroke="#048D12"/>
<rect x="2785.94" y="1421.5" width="21.1379" height="598.438" fill="url(#paint3_radial)" stroke="#048D12"/>
<rect x="2033" y="1466" width="427" height="151" rx="33" fill="url(#paint4_linear)" stroke="#FFFDFD" stroke-width="10"/>
<path d="M2144.86 1572H2132.16V1510.2L2144.86 1503.9V1572ZM2211.17 1547.6C2211.17 1554.73 2208.6 1560.73 2203.47 1565.6C2198.34 1570.47 2192 1572.9 2184.47 1572.9C2177.07 1572.9 2170.77 1570.43 2165.57 1565.5C2160.44 1560.57 2157.87 1554.6 2157.87 1547.6C2157.87 1540.53 2160.44 1534.57 2165.57 1529.7C2170.7 1524.83 2177 1522.4 2184.47 1522.4C2191.94 1522.4 2198.24 1524.83 2203.37 1529.7C2208.57 1534.57 2211.17 1540.53 2211.17 1547.6ZM2198.27 1547.6C2198.27 1543.8 2196.87 1540.67 2194.07 1538.2C2191.27 1535.67 2188.07 1534.4 2184.47 1534.4C2180.8 1534.4 2177.6 1535.67 2174.87 1538.2C2172.14 1540.67 2170.77 1543.8 2170.77 1547.6C2170.77 1551.47 2172.14 1554.63 2174.87 1557.1C2177.6 1559.5 2180.8 1560.7 2184.47 1560.7C2188.07 1560.7 2191.27 1559.47 2194.07 1557C2196.87 1554.47 2198.27 1551.33 2198.27 1547.6ZM2276.05 1523.4V1572C2275.45 1584.2 2267.25 1592.27 2251.45 1596.2L2248.95 1584.1C2258.08 1582.23 2262.81 1578.2 2263.15 1572V1569.7C2259.01 1571.83 2254.55 1572.9 2249.75 1572.9C2242.21 1572.9 2235.85 1570.47 2230.65 1565.6C2225.51 1560.73 2222.95 1554.73 2222.95 1547.6C2222.95 1540.27 2225.35 1534.23 2230.15 1529.5C2235.01 1524.7 2241.61 1522.33 2249.95 1522.4C2255.68 1522.47 2260.08 1523.63 2263.15 1525.9V1523.4H2276.05ZM2263.15 1556.3V1538.6C2258.81 1535.93 2254.35 1534.6 2249.75 1534.6C2245.68 1534.6 2242.35 1535.67 2239.75 1537.8C2237.01 1540.2 2235.65 1543.53 2235.65 1547.8C2235.65 1552 2237.11 1555.27 2240.05 1557.6C2242.71 1559.73 2246.05 1560.8 2250.05 1560.8C2255.11 1560.8 2259.48 1559.3 2263.15 1556.3ZM2303.35 1510.2C2303.35 1512.13 2302.69 1513.67 2301.35 1514.8C2300.02 1516 2298.55 1516.6 2296.95 1516.6C2295.29 1516.6 2293.82 1516.03 2292.55 1514.9C2291.29 1513.7 2290.65 1512.13 2290.65 1510.2C2290.65 1508.47 2291.25 1507 2292.45 1505.8C2293.72 1504.53 2295.22 1503.9 2296.95 1503.9C2298.55 1503.9 2300.02 1504.5 2301.35 1505.7C2302.69 1506.83 2303.35 1508.33 2303.35 1510.2ZM2303.35 1572H2290.65V1523.1H2303.35V1572ZM2367.97 1572H2355.27V1545C2355.27 1541.87 2354.13 1539.17 2351.87 1536.9C2349.67 1534.63 2346.73 1533.5 2343.07 1533.5C2339.87 1533.43 2337.03 1534.5 2334.57 1536.7C2332.17 1538.83 2330.93 1541.73 2330.87 1545.4V1572H2318.17V1523.1H2330.87V1527.1C2334.4 1523.83 2339 1522.2 2344.67 1522.2C2351.87 1522.33 2357.53 1524.77 2361.67 1529.5C2365.87 1534.23 2367.97 1539.4 2367.97 1545V1572Z" fill="white"/>
<rect x="2584" y="1466" width="427" height="151" rx="33" fill="url(#paint5_linear)" stroke="#FFFDFD" stroke-width="10"/>
<path d="M2674.11 1525.3L2670.61 1535C2668.61 1533 2666.57 1532.03 2664.51 1532.1C2660.04 1532.23 2657.67 1535.37 2657.41 1541.5V1572H2646.61V1522.3H2657.31V1525.9C2659.11 1523.23 2661.71 1521.9 2665.11 1521.9C2668.51 1521.97 2671.51 1523.1 2674.11 1525.3ZM2719.76 1552H2690.96C2690.96 1555.13 2691.8 1557.73 2693.46 1559.8C2695.13 1561.8 2697.3 1562.77 2699.96 1562.7C2703.7 1562.83 2706.56 1561.2 2708.56 1557.8L2718.06 1561.7C2714.73 1569.17 2708.76 1573 2700.16 1573.2C2694.1 1573.2 2689.2 1570.97 2685.46 1566.5C2681.8 1562.03 2679.96 1555.63 2679.96 1547.3C2679.96 1540.43 2681.73 1534.5 2685.26 1529.5C2688.86 1524.43 2693.83 1521.9 2700.16 1521.9C2706.1 1521.9 2710.83 1524.23 2714.36 1528.9C2717.96 1533.57 2719.76 1541.27 2719.76 1552ZM2709.06 1542.2C2709.13 1539.4 2708.33 1536.97 2706.66 1534.9C2705.06 1532.83 2702.9 1531.8 2700.16 1531.8C2697.23 1531.73 2694.9 1532.83 2693.16 1535.1C2691.43 1537.3 2690.63 1539.67 2690.76 1542.2H2709.06ZM2748.73 1573.2C2735.39 1573.2 2728.73 1564.9 2728.73 1548.3C2728.73 1530.97 2735.46 1522.17 2748.93 1521.9C2752.93 1521.97 2755.99 1523.13 2758.13 1525.4V1522.3H2768.73V1570.3C2768.26 1583.37 2762.29 1592 2750.83 1596.2L2746.43 1587.4C2754.43 1584.2 2758.33 1578.5 2758.13 1570.3C2755.33 1572.23 2752.19 1573.2 2748.73 1573.2ZM2739.13 1548.2C2739.19 1558.53 2742.36 1563.73 2748.63 1563.8C2752.36 1563.87 2755.46 1562.3 2757.93 1559.1V1537.1C2755.99 1533.83 2752.99 1532.2 2748.93 1532.2C2742.39 1532.6 2739.13 1537.93 2739.13 1548.2ZM2791.61 1509.3C2791.61 1510.83 2791.08 1512.13 2790.01 1513.2C2788.95 1514.2 2787.68 1514.7 2786.21 1514.7C2784.81 1514.7 2783.55 1514.17 2782.41 1513.1C2781.35 1511.97 2780.81 1510.7 2780.81 1509.3C2780.81 1507.9 2781.35 1506.67 2782.41 1505.6C2783.55 1504.47 2784.81 1503.9 2786.21 1503.9C2787.61 1503.9 2788.85 1504.47 2789.91 1505.6C2791.05 1506.67 2791.61 1507.9 2791.61 1509.3ZM2791.71 1572H2780.81V1523.1H2791.71V1572ZM2838.03 1558.8C2837.96 1563.07 2836.29 1566.53 2833.03 1569.2C2829.76 1571.8 2825.26 1573.13 2819.53 1573.2C2812.99 1573.13 2806.99 1570.63 2801.53 1565.7L2808.53 1558.7C2812.59 1561.9 2816.26 1563.53 2819.53 1563.6C2821.86 1563.67 2823.83 1563.2 2825.43 1562.2C2827.09 1561.13 2827.89 1559.83 2827.83 1558.3C2827.89 1556.77 2827.16 1555.33 2825.63 1554C2824.09 1552.67 2821.63 1551.33 2818.23 1550C2813.29 1548.33 2809.69 1546.27 2807.43 1543.8C2805.16 1541.33 2804.03 1538.47 2804.03 1535.2C2803.83 1531.93 2805.16 1528.9 2808.03 1526.1C2810.96 1523.23 2814.79 1521.8 2819.53 1521.8C2826.73 1521.93 2832.69 1524.5 2837.43 1529.5L2830.73 1536.2C2827.46 1533.2 2823.79 1531.63 2819.73 1531.5C2818.06 1531.5 2816.73 1531.87 2815.73 1532.6C2814.79 1533.27 2814.29 1534.2 2814.23 1535.4C2814.16 1536.47 2814.53 1537.33 2815.33 1538C2816.19 1538.67 2818.29 1539.63 2821.63 1540.9C2826.36 1542.37 2830.26 1544.5 2833.33 1547.3C2836.46 1550.1 2838.03 1553.93 2838.03 1558.8ZM2869.11 1561.3L2866.21 1571.9C2864.54 1572.77 2862.61 1573.2 2860.41 1573.2C2857.87 1573.2 2855.57 1572.03 2853.51 1569.7C2851.44 1567.37 2850.41 1564.23 2850.41 1560.3V1533H2843.31V1523.1H2850.41V1509L2860.71 1503.9V1523.1H2869.21V1532.8H2860.71V1559.1C2860.71 1561.77 2861.71 1563.17 2863.71 1563.3C2865.37 1563.37 2867.17 1562.7 2869.11 1561.3ZM2915.17 1552H2886.37C2886.37 1555.13 2887.21 1557.73 2888.87 1559.8C2890.54 1561.8 2892.71 1562.77 2895.37 1562.7C2899.11 1562.83 2901.97 1561.2 2903.97 1557.8L2913.47 1561.7C2910.14 1569.17 2904.17 1573 2895.57 1573.2C2889.51 1573.2 2884.61 1570.97 2880.87 1566.5C2877.21 1562.03 2875.37 1555.63 2875.37 1547.3C2875.37 1540.43 2877.14 1534.5 2880.67 1529.5C2884.27 1524.43 2889.24 1521.9 2895.57 1521.9C2901.51 1521.9 2906.24 1524.23 2909.77 1528.9C2913.37 1533.57 2915.17 1541.27 2915.17 1552ZM2904.47 1542.2C2904.54 1539.4 2903.74 1536.97 2902.07 1534.9C2900.47 1532.83 2898.31 1531.8 2895.57 1531.8C2892.64 1531.73 2890.31 1532.83 2888.57 1535.1C2886.84 1537.3 2886.04 1539.67 2886.17 1542.2H2904.47ZM2952.04 1525.3L2948.54 1535C2946.54 1533 2944.5 1532.03 2942.44 1532.1C2937.97 1532.23 2935.6 1535.37 2935.34 1541.5V1572H2924.54V1522.3H2935.24V1525.9C2937.04 1523.23 2939.64 1521.9 2943.04 1521.9C2946.44 1521.97 2949.44 1523.1 2952.04 1525.3Z" fill="white"/>
<rect x="2033" y="1665" width="978" height="151" rx="33" fill="url(#paint6_linear)" stroke="#FFFDFD" stroke-width="10"/>
<path d="M2097.59 1744.24C2097.59 1738.75 2098.63 1734.29 2100.71 1730.88C2103.48 1726.24 2107.88 1723.92 2113.91 1723.92C2121.64 1723.92 2126.6 1727.2 2128.79 1733.76L2120.87 1736.96C2119.69 1733.55 2117.35 1731.87 2113.83 1731.92C2110.95 1731.92 2108.87 1733.47 2107.59 1736.56C2106.68 1738.75 2106.23 1741.31 2106.23 1744.24C2106.23 1747.17 2106.68 1749.73 2107.59 1751.92C2108.87 1755.01 2110.95 1756.56 2113.83 1756.56C2117.35 1756.61 2119.69 1754.93 2120.87 1751.52L2128.79 1754.72C2126.6 1761.28 2121.64 1764.56 2113.91 1764.56C2107.88 1764.56 2103.48 1762.24 2100.71 1757.6C2098.63 1754.19 2097.59 1749.73 2097.59 1744.24ZM2167.17 1744.4C2167.12 1749.79 2166.05 1754.19 2163.97 1757.6C2161.2 1762.24 2156.83 1764.69 2150.85 1764.96C2144.88 1764.69 2140.51 1762.24 2137.73 1757.6C2135.65 1754.19 2134.59 1749.79 2134.53 1744.4C2134.59 1738.8 2135.65 1734.29 2137.73 1730.88C2140.56 1726.4 2144.93 1724.08 2150.85 1723.92C2156.77 1724.08 2161.15 1726.4 2163.97 1730.88C2166.05 1734.29 2167.12 1738.8 2167.17 1744.4ZM2150.77 1756.48C2153.87 1756.48 2156.13 1754.96 2157.57 1751.92C2158.53 1749.79 2159.01 1747.31 2159.01 1744.48C2159.01 1741.49 2158.53 1738.93 2157.57 1736.8C2156.19 1733.76 2153.92 1732.24 2150.77 1732.24C2147.73 1732.24 2145.52 1733.76 2144.13 1736.8C2143.17 1738.93 2142.69 1741.49 2142.69 1744.48C2142.69 1747.31 2143.17 1749.79 2144.13 1751.92C2145.73 1754.96 2147.95 1756.48 2150.77 1756.48ZM2173.14 1724.4H2181.46V1726.88C2183.81 1724.91 2186.93 1723.92 2190.82 1723.92C2195.35 1723.92 2198.74 1725.47 2200.98 1728.56C2203.22 1731.65 2204.34 1735.25 2204.34 1739.36V1764H2196.1V1739.52C2196.21 1737.49 2195.54 1735.68 2194.1 1734.08C2192.66 1732.43 2190.85 1731.65 2188.66 1731.76C2186.37 1731.76 2184.61 1732.43 2183.38 1733.76C2182.21 1735.09 2181.62 1737.01 2181.62 1739.52V1764H2173.14V1724.4ZM2230.23 1755.44L2227.91 1763.92C2226.58 1764.61 2225.03 1764.96 2223.27 1764.96C2221.24 1764.96 2219.4 1764.03 2217.75 1762.16C2216.1 1760.29 2215.27 1757.79 2215.27 1754.64V1732.8H2209.59V1724.88H2215.27V1713.6L2223.51 1709.52V1724.88H2230.31V1732.64H2223.51V1753.68C2223.51 1755.81 2224.31 1756.93 2225.91 1757.04C2227.24 1757.09 2228.68 1756.56 2230.23 1755.44ZM2246.21 1713.84C2246.21 1715.07 2245.78 1716.11 2244.93 1716.96C2244.07 1717.76 2243.06 1718.16 2241.89 1718.16C2240.77 1718.16 2239.75 1717.73 2238.85 1716.88C2237.99 1715.97 2237.57 1714.96 2237.57 1713.84C2237.57 1712.72 2237.99 1711.73 2238.85 1710.88C2239.75 1709.97 2240.77 1709.52 2241.89 1709.52C2243.01 1709.52 2243.99 1709.97 2244.85 1710.88C2245.75 1711.73 2246.21 1712.72 2246.21 1713.84ZM2246.29 1764H2237.57V1724.88H2246.29V1764ZM2255.09 1724.4H2263.41V1726.88C2265.76 1724.91 2268.88 1723.92 2272.77 1723.92C2277.31 1723.92 2280.69 1725.47 2282.93 1728.56C2285.17 1731.65 2286.29 1735.25 2286.29 1739.36V1764H2278.05V1739.52C2278.16 1737.49 2277.49 1735.68 2276.05 1734.08C2274.61 1732.43 2272.8 1731.65 2270.61 1731.76C2268.32 1731.76 2266.56 1732.43 2265.33 1733.76C2264.16 1735.09 2263.57 1737.01 2263.57 1739.52V1764H2255.09V1724.4ZM2324.26 1764H2315.94V1762C2313.6 1763.97 2310.48 1764.96 2306.58 1764.96C2302.05 1764.96 2298.66 1763.41 2296.42 1760.32C2294.18 1757.23 2293.06 1753.63 2293.06 1749.52V1724.88H2301.3V1749.36C2301.2 1751.39 2301.86 1753.23 2303.3 1754.88C2304.74 1756.48 2306.56 1757.23 2308.74 1757.12C2311.04 1757.12 2312.77 1756.45 2313.94 1755.12C2315.17 1753.79 2315.78 1751.87 2315.78 1749.36V1724.88H2324.26V1764ZM2362.63 1748H2339.59C2339.59 1750.51 2340.26 1752.59 2341.59 1754.24C2342.93 1755.84 2344.66 1756.61 2346.79 1756.56C2349.78 1756.67 2352.07 1755.36 2353.67 1752.64L2361.27 1755.76C2358.61 1761.73 2353.83 1764.8 2346.95 1764.96C2342.1 1764.96 2338.18 1763.17 2335.19 1759.6C2332.26 1756.03 2330.79 1750.91 2330.79 1744.24C2330.79 1738.75 2332.21 1734 2335.03 1730C2337.91 1725.95 2341.89 1723.92 2346.95 1723.92C2351.7 1723.92 2355.49 1725.79 2358.31 1729.52C2361.19 1733.25 2362.63 1739.41 2362.63 1748ZM2354.07 1740.16C2354.13 1737.92 2353.49 1735.97 2352.15 1734.32C2350.87 1732.67 2349.14 1731.84 2346.95 1731.84C2344.61 1731.79 2342.74 1732.67 2341.35 1734.48C2339.97 1736.24 2339.33 1738.13 2339.43 1740.16H2354.07ZM2436.51 1724.88L2427.55 1764H2419.71L2411.55 1737.12L2403.71 1764H2395.95L2387.23 1724.88H2395.47L2400.43 1745.92L2407.31 1724.88H2416.27L2422.99 1745.92L2428.19 1724.88H2436.51ZM2451.91 1713.84C2451.91 1715.07 2451.48 1716.11 2450.63 1716.96C2449.77 1717.76 2448.76 1718.16 2447.59 1718.16C2446.47 1718.16 2445.45 1717.73 2444.55 1716.88C2443.69 1715.97 2443.27 1714.96 2443.27 1713.84C2443.27 1712.72 2443.69 1711.73 2444.55 1710.88C2445.45 1709.97 2446.47 1709.52 2447.59 1709.52C2448.71 1709.52 2449.69 1709.97 2450.55 1710.88C2451.45 1711.73 2451.91 1712.72 2451.91 1713.84ZM2451.99 1764H2443.27V1724.88H2451.99V1764ZM2479.92 1755.44L2477.6 1763.92C2476.26 1764.61 2474.72 1764.96 2472.96 1764.96C2470.93 1764.96 2469.09 1764.03 2467.44 1762.16C2465.78 1760.29 2464.96 1757.79 2464.96 1754.64V1732.8H2459.28V1724.88H2464.96V1713.6L2473.2 1709.52V1724.88H2480V1732.64H2473.2V1753.68C2473.2 1755.81 2474 1756.93 2475.6 1757.04C2476.93 1757.09 2478.37 1756.56 2479.92 1755.44ZM2485.17 1713.68L2493.49 1709.52V1726.88C2495.84 1724.91 2498.96 1723.92 2502.85 1723.92C2507.39 1723.92 2510.77 1725.47 2513.01 1728.56C2515.25 1731.65 2516.37 1735.25 2516.37 1739.36V1764H2508.13V1739.52C2508.24 1737.49 2507.57 1735.68 2506.13 1734.08C2504.69 1732.43 2502.88 1731.65 2500.69 1731.76C2498.4 1731.76 2496.64 1732.43 2495.41 1733.76C2494.24 1735.09 2493.65 1737.01 2493.65 1739.52V1764H2485.17V1713.68ZM2555.14 1744.4C2555.09 1749.79 2554.02 1754.19 2551.94 1757.6C2549.17 1762.24 2544.79 1764.69 2538.82 1764.96C2532.85 1764.69 2528.47 1762.24 2525.7 1757.6C2523.62 1754.19 2522.55 1749.79 2522.5 1744.4C2522.55 1738.8 2523.62 1734.29 2525.7 1730.88C2528.53 1726.4 2532.9 1724.08 2538.82 1723.92C2544.74 1724.08 2549.11 1726.4 2551.94 1730.88C2554.02 1734.29 2555.09 1738.8 2555.14 1744.4ZM2538.74 1756.48C2541.83 1756.48 2544.1 1754.96 2545.54 1751.92C2546.5 1749.79 2546.98 1747.31 2546.98 1744.48C2546.98 1741.49 2546.5 1738.93 2545.54 1736.8C2544.15 1733.76 2541.89 1732.24 2538.74 1732.24C2535.7 1732.24 2533.49 1733.76 2532.1 1736.8C2531.14 1738.93 2530.66 1741.49 2530.66 1744.48C2530.66 1747.31 2531.14 1749.79 2532.1 1751.92C2533.7 1754.96 2535.91 1756.48 2538.74 1756.48ZM2592.31 1764H2583.99V1762C2581.64 1763.97 2578.52 1764.96 2574.63 1764.96C2570.1 1764.96 2566.71 1763.41 2564.47 1760.32C2562.23 1757.23 2561.11 1753.63 2561.11 1749.52V1724.88H2569.35V1749.36C2569.24 1751.39 2569.91 1753.23 2571.35 1754.88C2572.79 1756.48 2574.6 1757.23 2576.79 1757.12C2579.08 1757.12 2580.82 1756.45 2581.99 1755.12C2583.22 1753.79 2583.83 1751.87 2583.83 1749.36V1724.88H2592.31V1764ZM2618.2 1755.44L2615.88 1763.92C2614.55 1764.61 2613 1764.96 2611.24 1764.96C2609.21 1764.96 2607.37 1764.03 2605.72 1762.16C2604.07 1760.29 2603.24 1757.79 2603.24 1754.64V1732.8H2597.56V1724.88H2603.24V1713.6L2611.48 1709.52V1724.88H2618.28V1732.64H2611.48V1753.68C2611.48 1755.81 2612.28 1756.93 2613.88 1757.04C2615.21 1757.09 2616.65 1756.56 2618.2 1755.44ZM2672.08 1753.44C2672.03 1756.85 2670.7 1759.63 2668.08 1761.76C2665.47 1763.84 2661.87 1764.91 2657.28 1764.96C2652.06 1764.91 2647.26 1762.91 2642.88 1758.96L2648.48 1753.36C2651.74 1755.92 2654.67 1757.23 2657.28 1757.28C2659.15 1757.33 2660.72 1756.96 2662 1756.16C2663.34 1755.31 2663.98 1754.27 2663.92 1753.04C2663.98 1751.81 2663.39 1750.67 2662.16 1749.6C2660.94 1748.53 2658.96 1747.47 2656.24 1746.4C2652.3 1745.07 2649.42 1743.41 2647.6 1741.44C2645.79 1739.47 2644.88 1737.17 2644.88 1734.56C2644.72 1731.95 2645.79 1729.52 2648.08 1727.28C2650.43 1724.99 2653.5 1723.84 2657.28 1723.84C2663.04 1723.95 2667.82 1726 2671.6 1730L2666.24 1735.36C2663.63 1732.96 2660.7 1731.71 2657.44 1731.6C2656.11 1731.6 2655.04 1731.89 2654.24 1732.48C2653.5 1733.01 2653.1 1733.76 2653.04 1734.72C2652.99 1735.57 2653.28 1736.27 2653.92 1736.8C2654.62 1737.33 2656.3 1738.11 2658.96 1739.12C2662.75 1740.29 2665.87 1742 2668.32 1744.24C2670.83 1746.48 2672.08 1749.55 2672.08 1753.44ZM2688.55 1713.84C2688.55 1715.07 2688.12 1716.11 2687.27 1716.96C2686.42 1717.76 2685.4 1718.16 2684.23 1718.16C2683.11 1718.16 2682.1 1717.73 2681.19 1716.88C2680.34 1715.97 2679.91 1714.96 2679.91 1713.84C2679.91 1712.72 2680.34 1711.73 2681.19 1710.88C2682.1 1709.97 2683.11 1709.52 2684.23 1709.52C2685.35 1709.52 2686.34 1709.97 2687.19 1710.88C2688.1 1711.73 2688.55 1712.72 2688.55 1713.84ZM2688.63 1764H2679.91V1724.88H2688.63V1764ZM2714.24 1764.96C2703.57 1764.96 2698.24 1758.32 2698.24 1745.04C2698.24 1731.17 2703.62 1724.13 2714.4 1723.92C2717.6 1723.97 2720.05 1724.91 2721.76 1726.72V1724.24H2730.24V1762.64C2729.86 1773.09 2725.09 1780 2715.92 1783.36L2712.4 1776.32C2718.8 1773.76 2721.92 1769.2 2721.76 1762.64C2719.52 1764.19 2717.01 1764.96 2714.24 1764.96ZM2706.56 1744.96C2706.61 1753.23 2709.14 1757.39 2714.16 1757.44C2717.14 1757.49 2719.62 1756.24 2721.6 1753.68V1736.08C2720.05 1733.47 2717.65 1732.16 2714.4 1732.16C2709.17 1732.48 2706.56 1736.75 2706.56 1744.96ZM2737.83 1724.4H2746.15V1726.88C2748.5 1724.91 2751.62 1723.92 2755.51 1723.92C2760.04 1723.92 2763.43 1725.47 2765.67 1728.56C2767.91 1731.65 2769.03 1735.25 2769.03 1739.36V1764H2760.79V1739.52C2760.9 1737.49 2760.23 1735.68 2758.79 1734.08C2757.35 1732.43 2755.54 1731.65 2753.35 1731.76C2751.06 1731.76 2749.3 1732.43 2748.07 1733.76C2746.9 1735.09 2746.31 1737.01 2746.31 1739.52V1764H2737.83V1724.4ZM2786.52 1713.84C2786.52 1715.07 2786.09 1716.11 2785.24 1716.96C2784.38 1717.76 2783.37 1718.16 2782.2 1718.16C2781.08 1718.16 2780.06 1717.73 2779.16 1716.88C2778.3 1715.97 2777.88 1714.96 2777.88 1713.84C2777.88 1712.72 2778.3 1711.73 2779.16 1710.88C2780.06 1709.97 2781.08 1709.52 2782.2 1709.52C2783.32 1709.52 2784.3 1709.97 2785.16 1710.88C2786.06 1711.73 2786.52 1712.72 2786.52 1713.84ZM2786.6 1764H2777.88V1724.88H2786.6V1764ZM2795.41 1724.4H2803.73V1726.88C2806.07 1724.91 2809.19 1723.92 2813.09 1723.92C2817.62 1723.92 2821.01 1725.47 2823.25 1728.56C2825.49 1731.65 2826.61 1735.25 2826.61 1739.36V1764H2818.37V1739.52C2818.47 1737.49 2817.81 1735.68 2816.37 1734.08C2814.93 1732.43 2813.11 1731.65 2810.93 1731.76C2808.63 1731.76 2806.87 1732.43 2805.65 1733.76C2804.47 1735.09 2803.89 1737.01 2803.89 1739.52V1764H2795.41V1724.4ZM2850.18 1764.96C2839.51 1764.96 2834.18 1758.32 2834.18 1745.04C2834.18 1731.17 2839.56 1724.13 2850.34 1723.92C2853.54 1723.97 2855.99 1724.91 2857.7 1726.72V1724.24H2866.18V1762.64C2865.8 1773.09 2861.03 1780 2851.86 1783.36L2848.34 1776.32C2854.74 1773.76 2857.86 1769.2 2857.7 1762.64C2855.46 1764.19 2852.95 1764.96 2850.18 1764.96ZM2842.5 1744.96C2842.55 1753.23 2845.08 1757.39 2850.1 1757.44C2853.08 1757.49 2855.56 1756.24 2857.54 1753.68V1736.08C2855.99 1733.47 2853.59 1732.16 2850.34 1732.16C2845.11 1732.48 2842.5 1736.75 2842.5 1744.96ZM2904.88 1713.84C2904.88 1715.07 2904.45 1716.11 2903.6 1716.96C2902.74 1717.76 2901.73 1718.16 2900.56 1718.16C2899.44 1718.16 2898.42 1717.73 2897.52 1716.88C2896.66 1715.97 2896.24 1714.96 2896.24 1713.84C2896.24 1712.72 2896.66 1711.73 2897.52 1710.88C2898.42 1709.97 2899.44 1709.52 2900.56 1709.52C2901.68 1709.52 2902.66 1709.97 2903.52 1710.88C2904.42 1711.73 2904.88 1712.72 2904.88 1713.84ZM2904.96 1764H2896.24V1724.88H2904.96V1764ZM2913.77 1724.4H2922.09V1726.88C2924.43 1724.91 2927.55 1723.92 2931.45 1723.92C2935.98 1723.92 2939.37 1725.47 2941.61 1728.56C2943.85 1731.65 2944.97 1735.25 2944.97 1739.36V1764H2936.73V1739.52C2936.83 1737.49 2936.17 1735.68 2934.73 1734.08C2933.29 1732.43 2931.47 1731.65 2929.29 1731.76C2926.99 1731.76 2925.23 1732.43 2924.01 1733.76C2922.83 1735.09 2922.25 1737.01 2922.25 1739.52V1764H2913.77V1724.4Z" fill="white"/>
<path d="M3590.19 948.577L3669.82 988.805L3748.19 948.588V797.5H3590.19V948.577Z" fill="#26AD04" stroke="#001A23" stroke-width="5"/>
<path d="M3705.66 899.61C3705.66 910.544 3701.17 920.438 3692.21 929.294C3683.35 938.15 3671.98 942.578 3658.1 942.578C3648.37 942.578 3639.4 940.501 3631.2 936.346L3641.2 920.602C3646.34 923.226 3652.03 924.538 3658.26 924.538C3666.35 924.757 3673.4 922.133 3679.42 916.666C3685.54 911.2 3688.6 905.405 3688.6 899.282C3688.71 894.034 3686.91 889.606 3683.19 885.998C3679.58 882.39 3674.99 880.586 3669.41 880.586C3662.31 880.477 3655.96 883.702 3650.39 890.262L3634.81 884.358L3636.61 830.73H3699.75V848.114H3653.5L3652.85 866.974C3658.21 864.132 3663.67 862.71 3669.25 862.71C3679.63 862.929 3688.27 866.482 3695.16 873.37C3702.16 880.258 3705.66 889.005 3705.66 899.61Z" fill="white"/>
<path d="M3574.69 1160.11L3673.19 1061.11L3607.69 1167.11L3574.69 1160.11Z" fill="#343434"/>
<path d="M3635.19 1121.61L3671.69 1062.61L3767.69 1161.61L3723.69 1177.61L3635.19 1121.61Z" fill="#6C6B6B"/>
<path d="M3571.15 1156.95L3673.19 1054.61" stroke="#001A23" stroke-width="10"/>
<path d="M3666.19 1054.61L3771.17 1158.02" stroke="#001A23" stroke-width="10"/>
<path d="M3605.69 1143.66L3615.69 1119.61V1229.61H3605.69V1143.66Z" fill="#C4C4C4"/>
<rect x="3615.69" y="1119.61" width="110" height="110" fill="#D4EFF5"/>
<rect x="3643.69" y="1145.61" width="56" height="56" fill="#FFA500" stroke="#001A23" stroke-width="4"/>
<path d="M3641.69 1173.11H3701.69" stroke="#001A23" stroke-width="5"/>
<line x1="3672.19" y1="1143.61" x2="3672.19" y2="1203.61" stroke="#001A23" stroke-width="5"/>
<line x1="3727.67" y1="1119.11" x2="3615.67" y2="1118.13" stroke="#001A23" stroke-width="5"/>
<line x1="3728.82" y1="1173.26" x2="3766.82" y2="1159.26" stroke="#001A23" stroke-width="5"/>
<path d="M3575 1157.61L3602.5 1163.61" stroke="#001A23" stroke-width="5"/>
<line x1="3615" y1="1117.55" x2="3604" y2="1144.55" stroke="#001A23" stroke-width="5"/>
<line x1="3604.19" y1="1143.61" x2="3604.19" y2="1233.61" stroke="#001A23" stroke-width="5"/>
<line x1="3728.19" y1="1119.61" x2="3728.19" y2="1233.61" stroke="#001A23" stroke-width="5"/>
<line x1="3605.69" y1="1231.11" x2="3725.69" y2="1231.11" stroke="#001A23" stroke-width="5"/>
<line x1="3458.31" y1="1188.63" x2="3756.81" y2="1235.91" stroke="#329C00" stroke-width="4"/>
<rect x="3553.08" y="1205.61" width="210.322" height="32.4764" transform="rotate(9 3553.08 1205.61)" fill="#84CC63"/>
<path d="M563.187 829.966L642.82 870.195L721.187 829.977V678.89H563.187V829.966Z" fill="#62AC04" stroke="#001A23" stroke-width="5"/>
<path d="M678.264 796.612H667.768V824H650.384V796.612H598.396V780.704L650.384 714.12H667.768V780.868H678.264V796.612ZM650.384 780.868V741.508L619.224 780.868H650.384Z" fill="white"/>
<path d="M547.687 1041.5L646.187 942.5L580.687 1048.5L547.687 1041.5Z" fill="#343434"/>
<path d="M608.187 1003L644.687 944L740.687 1043L696.687 1059L608.187 1003Z" fill="#6C6B6B"/>
<path d="M544.151 1038.34L646.187 936" stroke="#001A23" stroke-width="10"/>
<path d="M639.187 936L744.167 1039.41" stroke="#001A23" stroke-width="10"/>
<path d="M578.687 1025.05L588.687 1001V1111H578.687V1025.05Z" fill="#C4C4C4"/>
<rect x="588.687" y="1001" width="110" height="110" fill="#D4EFF5"/>
<rect x="616.687" y="1027" width="56" height="56" fill="#FFA500" stroke="#001A23" stroke-width="4"/>
<path d="M614.687 1054.5H674.687" stroke="#001A23" stroke-width="5"/>
<line x1="645.187" y1="1025" x2="645.187" y2="1085" stroke="#001A23" stroke-width="5"/>
<line x1="700.665" y1="1000.5" x2="588.665" y2="999.517" stroke="#001A23" stroke-width="5"/>
<line x1="701.823" y1="1054.65" x2="739.823" y2="1040.65" stroke="#001A23" stroke-width="5"/>
<path d="M548 1039L575.5 1045" stroke="#001A23" stroke-width="5"/>
<line x1="588.002" y1="998.943" x2="577.002" y2="1025.94" stroke="#001A23" stroke-width="5"/>
<line x1="577.187" y1="1025" x2="577.187" y2="1115" stroke="#001A23" stroke-width="5"/>
<line x1="701.187" y1="1001" x2="701.187" y2="1115" stroke="#001A23" stroke-width="5"/>
<line x1="578.687" y1="1112.5" x2="698.687" y2="1112.5" stroke="#001A23" stroke-width="5"/>
<line x1="509.482" y1="1120.29" x2="801.405" y2="1042.07" stroke="#329C00" stroke-width="4"/>
<path d="M536.211 1114.97L739.254 1061.13L751.948 1105.56L548.792 1159.99L536.211 1114.97Z" fill="#84CC63"/>
<rect x="3016" y="1858" width="56" height="56" fill="#D4EFF5"/>
<rect x="3029.24" y="1870.22" width="30.5455" height="30.5455" fill="#FFA500"/>
<path d="M3103.7 1906H3089.34V1902.29H3094.11V1873.36H3089.34V1869.65H3103.7V1873.36H3098.94V1902.29H3103.7V1906ZM3150.33 1906H3145.77V1903.09C3145.36 1903.37 3144.81 1903.76 3144.11 1904.27C3143.42 1904.75 3142.75 1905.15 3142.1 1905.44C3141.34 1905.81 3140.46 1906.12 3139.47 1906.37C3138.47 1906.63 3137.31 1906.76 3135.98 1906.76C3133.52 1906.76 3131.43 1905.94 3129.73 1904.32C3128.02 1902.69 3127.16 1900.61 3127.16 1898.09C3127.16 1896.02 3127.6 1894.35 3128.48 1893.08C3129.38 1891.8 3130.65 1890.79 3132.29 1890.06C3133.95 1889.33 3135.94 1888.83 3138.27 1888.57C3140.6 1888.31 3143.1 1888.11 3145.77 1887.98V1887.27C3145.77 1886.23 3145.58 1885.37 3145.2 1884.69C3144.85 1884 3144.33 1883.47 3143.64 1883.08C3142.99 1882.7 3142.21 1882.45 3141.3 1882.32C3140.39 1882.19 3139.43 1882.12 3138.44 1882.12C3137.24 1882.12 3135.89 1882.29 3134.41 1882.61C3132.93 1882.92 3131.4 1883.38 3129.82 1883.98H3129.58V1879.32C3130.47 1879.07 3131.77 1878.8 3133.46 1878.51C3135.15 1878.22 3136.82 1878.07 3138.47 1878.07C3140.39 1878.07 3142.05 1878.23 3143.47 1878.56C3144.9 1878.87 3146.14 1879.4 3147.18 1880.17C3148.21 1880.92 3148.99 1881.89 3149.53 1883.08C3150.06 1884.26 3150.33 1885.74 3150.33 1887.49V1906ZM3145.77 1899.29V1891.69C3144.37 1891.77 3142.71 1891.9 3140.81 1892.06C3138.92 1892.22 3137.42 1892.46 3136.32 1892.77C3135 1893.14 3133.93 1893.73 3133.12 1894.53C3132.31 1895.31 3131.9 1896.39 3131.9 1897.77C3131.9 1899.33 3132.37 1900.51 3133.31 1901.31C3134.26 1902.09 3135.7 1902.48 3137.64 1902.48C3139.25 1902.48 3140.72 1902.18 3142.05 1901.56C3143.39 1900.92 3144.63 1900.17 3145.77 1899.29ZM3181.29 1902.9C3181.29 1907.52 3180.24 1910.92 3178.14 1913.08C3176.04 1915.24 3172.81 1916.33 3168.45 1916.33C3167 1916.33 3165.58 1916.22 3164.2 1916.01C3162.83 1915.81 3161.48 1915.53 3160.15 1915.16V1910.47H3160.39C3161.14 1910.76 3162.33 1911.12 3163.95 1911.54C3165.58 1911.98 3167.21 1912.2 3168.84 1912.2C3170.4 1912.2 3171.69 1912.01 3172.72 1911.64C3173.74 1911.27 3174.54 1910.74 3175.11 1910.08C3175.68 1909.44 3176.09 1908.68 3176.33 1907.78C3176.58 1906.89 3176.7 1905.89 3176.7 1904.78V1902.29C3175.31 1903.4 3173.99 1904.23 3172.72 1904.78C3171.47 1905.32 3169.86 1905.58 3167.91 1905.58C3164.65 1905.58 3162.07 1904.41 3160.15 1902.07C3158.24 1899.71 3157.29 1896.39 3157.29 1892.11C3157.29 1889.76 3157.61 1887.75 3158.27 1886.05C3158.93 1884.34 3159.84 1882.87 3160.98 1881.63C3162.03 1880.48 3163.32 1879.58 3164.83 1878.95C3166.35 1878.3 3167.85 1877.97 3169.35 1877.97C3170.93 1877.97 3172.25 1878.14 3173.3 1878.46C3174.38 1878.77 3175.51 1879.25 3176.7 1879.9L3176.99 1878.73H3181.29V1902.9ZM3176.7 1898.5V1883.64C3175.48 1883.08 3174.34 1882.69 3173.28 1882.46C3172.24 1882.22 3171.2 1882.1 3170.16 1882.1C3167.63 1882.1 3165.65 1882.94 3164.2 1884.64C3162.75 1886.33 3162.03 1888.79 3162.03 1892.01C3162.03 1895.07 3162.56 1897.39 3163.64 1898.97C3164.71 1900.55 3166.49 1901.34 3168.98 1901.34C3170.32 1901.34 3171.65 1901.08 3172.99 1900.58C3174.34 1900.06 3175.58 1899.37 3176.7 1898.5ZM3207.34 1883.73H3207.09C3206.41 1883.57 3205.74 1883.46 3205.09 1883.39C3204.46 1883.31 3203.7 1883.27 3202.82 1883.27C3201.41 1883.27 3200.04 1883.59 3198.72 1884.22C3197.4 1884.84 3196.13 1885.65 3194.91 1886.64V1906H3190.32V1878.73H3194.91V1882.76C3196.73 1881.29 3198.34 1880.26 3199.72 1879.66C3201.12 1879.04 3202.54 1878.73 3203.99 1878.73C3204.79 1878.73 3205.37 1878.75 3205.73 1878.8C3206.08 1878.84 3206.62 1878.91 3207.34 1879.02V1883.73ZM3234.49 1892.84H3214.39C3214.39 1894.52 3214.65 1895.98 3215.15 1897.24C3215.65 1898.47 3216.35 1899.49 3217.23 1900.29C3218.07 1901.07 3219.07 1901.65 3220.23 1902.04C3221.4 1902.44 3222.69 1902.63 3224.09 1902.63C3225.94 1902.63 3227.81 1902.26 3229.68 1901.53C3231.56 1900.78 3232.91 1900.05 3233.71 1899.33H3233.95V1904.34C3232.4 1904.99 3230.82 1905.54 3229.21 1905.98C3227.6 1906.42 3225.91 1906.63 3224.13 1906.63C3219.61 1906.63 3216.08 1905.41 3213.54 1902.97C3211 1900.51 3209.73 1897.03 3209.73 1892.52C3209.73 1888.06 3210.94 1884.52 3213.37 1881.9C3215.81 1879.28 3219.02 1877.97 3222.99 1877.97C3226.67 1877.97 3229.5 1879.05 3231.48 1881.2C3233.49 1883.34 3234.49 1886.4 3234.49 1890.35V1892.84ZM3230.02 1889.33C3230 1886.92 3229.39 1885.05 3228.19 1883.73C3227 1882.42 3225.18 1881.76 3222.74 1881.76C3220.29 1881.76 3218.32 1882.48 3216.86 1883.93C3215.41 1885.38 3214.59 1887.18 3214.39 1889.33H3230.02ZM3264.27 1892.84H3244.18C3244.18 1894.52 3244.43 1895.98 3244.94 1897.24C3245.44 1898.47 3246.13 1899.49 3247.01 1900.29C3247.86 1901.07 3248.86 1901.65 3250.01 1902.04C3251.19 1902.44 3252.47 1902.63 3253.87 1902.63C3255.73 1902.63 3257.59 1902.26 3259.46 1901.53C3261.35 1900.78 3262.69 1900.05 3263.49 1899.33H3263.73V1904.34C3262.19 1904.99 3260.61 1905.54 3259 1905.98C3257.39 1906.42 3255.69 1906.63 3253.92 1906.63C3249.4 1906.63 3245.86 1905.41 3243.32 1902.97C3240.79 1900.51 3239.52 1897.03 3239.52 1892.52C3239.52 1888.06 3240.73 1884.52 3243.15 1881.9C3245.59 1879.28 3248.8 1877.97 3252.77 1877.97C3256.45 1877.97 3259.28 1879.05 3261.27 1881.2C3263.27 1883.34 3264.27 1886.4 3264.27 1890.35V1892.84ZM3259.8 1889.33C3259.79 1886.92 3259.18 1885.05 3257.97 1883.73C3256.78 1882.42 3254.97 1881.76 3252.53 1881.76C3250.07 1881.76 3248.11 1882.48 3246.64 1883.93C3245.2 1885.38 3244.37 1887.18 3244.18 1889.33H3259.8ZM3323.11 1878.73L3316 1906H3311.76L3304.75 1884.98L3297.79 1906H3293.57L3286.39 1878.73H3291.18L3296.18 1899.85L3302.99 1878.73H3306.78L3313.76 1899.85L3318.5 1878.73H3323.11ZM3334.66 1874.16H3329.48V1869.4H3334.66V1874.16ZM3334.36 1906H3329.77V1878.73H3334.36V1906ZM3357.61 1905.76C3356.74 1905.98 3355.8 1906.17 3354.77 1906.32C3353.77 1906.46 3352.86 1906.54 3352.06 1906.54C3349.28 1906.54 3347.17 1905.79 3345.72 1904.29C3344.27 1902.79 3343.54 1900.39 3343.54 1897.09V1882.59H3340.44V1878.73H3343.54V1870.89H3348.13V1878.73H3357.61V1882.59H3348.13V1895.01C3348.13 1896.45 3348.17 1897.57 3348.23 1898.38C3348.3 1899.18 3348.52 1899.93 3348.92 1900.63C3349.27 1901.28 3349.76 1901.76 3350.38 1902.07C3351.01 1902.36 3351.97 1902.51 3353.26 1902.51C3354.01 1902.51 3354.79 1902.4 3355.6 1902.19C3356.42 1901.96 3357 1901.78 3357.36 1901.63H3357.61V1905.76ZM3385.98 1906H3381.39V1890.47C3381.39 1889.22 3381.31 1888.05 3381.17 1886.96C3381.02 1885.85 3380.75 1884.99 3380.36 1884.37C3379.95 1883.69 3379.37 1883.18 3378.6 1882.86C3377.84 1882.51 3376.84 1882.34 3375.62 1882.34C3374.37 1882.34 3373.06 1882.65 3371.69 1883.27C3370.33 1883.89 3369.02 1884.68 3367.76 1885.64V1906H3363.17V1868.01H3367.76V1881.76C3369.19 1880.57 3370.68 1879.64 3372.21 1878.97C3373.74 1878.31 3375.31 1877.97 3376.92 1877.97C3379.86 1877.97 3382.11 1878.86 3383.66 1880.63C3385.2 1882.41 3385.98 1884.96 3385.98 1888.3V1906ZM3426.55 1905.76C3425.69 1905.98 3424.75 1906.17 3423.72 1906.32C3422.71 1906.46 3421.81 1906.54 3421.01 1906.54C3418.23 1906.54 3416.11 1905.79 3414.66 1904.29C3413.21 1902.79 3412.49 1900.39 3412.49 1897.09V1882.59H3409.39V1878.73H3412.49V1870.89H3417.08V1878.73H3426.55V1882.59H3417.08V1895.01C3417.08 1896.45 3417.11 1897.57 3417.18 1898.38C3417.24 1899.18 3417.47 1899.93 3417.86 1900.63C3418.22 1901.28 3418.71 1901.76 3419.33 1902.07C3419.96 1902.36 3420.92 1902.51 3422.21 1902.51C3422.95 1902.51 3423.74 1902.4 3424.55 1902.19C3425.36 1901.96 3425.95 1901.78 3426.31 1901.63H3426.55V1905.76ZM3454.95 1892.84H3434.85C3434.85 1894.52 3435.1 1895.98 3435.61 1897.24C3436.11 1898.47 3436.81 1899.49 3437.68 1900.29C3438.53 1901.07 3439.53 1901.65 3440.69 1902.04C3441.86 1902.44 3443.15 1902.63 3444.54 1902.63C3446.4 1902.63 3448.26 1902.26 3450.14 1901.53C3452.02 1900.78 3453.37 1900.05 3454.16 1899.33H3454.41V1904.34C3452.86 1904.99 3451.28 1905.54 3449.67 1905.98C3448.06 1906.42 3446.37 1906.63 3444.59 1906.63C3440.07 1906.63 3436.54 1905.41 3434 1902.97C3431.46 1900.51 3430.19 1897.03 3430.19 1892.52C3430.19 1888.06 3431.4 1884.52 3433.83 1881.9C3436.27 1879.28 3439.47 1877.97 3443.45 1877.97C3447.12 1877.97 3449.96 1879.05 3451.94 1881.2C3453.94 1883.34 3454.95 1886.4 3454.95 1890.35V1892.84ZM3450.48 1889.33C3450.46 1886.92 3449.85 1885.05 3448.65 1883.73C3447.46 1882.42 3445.64 1881.76 3443.2 1881.76C3440.74 1881.76 3438.78 1882.48 3437.32 1883.93C3435.87 1885.38 3435.05 1887.18 3434.85 1889.33H3450.48ZM3478.92 1883.73H3478.68C3477.99 1883.57 3477.32 1883.46 3476.67 1883.39C3476.04 1883.31 3475.28 1883.27 3474.4 1883.27C3472.99 1883.27 3471.62 1883.59 3470.3 1884.22C3468.98 1884.84 3467.71 1885.65 3466.49 1886.64V1906H3461.9V1878.73H3466.49V1882.76C3468.32 1881.29 3469.92 1880.26 3471.3 1879.66C3472.7 1879.04 3474.13 1878.73 3475.58 1878.73C3476.37 1878.73 3476.95 1878.75 3477.31 1878.8C3477.67 1878.84 3478.2 1878.91 3478.92 1879.02V1883.73ZM3523.04 1906H3518.45V1890.47C3518.45 1889.3 3518.39 1888.17 3518.28 1887.08C3518.18 1885.99 3517.96 1885.12 3517.62 1884.47C3517.24 1883.77 3516.7 1883.24 3516 1882.88C3515.31 1882.52 3514.3 1882.34 3512.98 1882.34C3511.69 1882.34 3510.41 1882.67 3509.12 1883.32C3507.83 1883.95 3506.55 1884.77 3505.26 1885.76C3505.31 1886.14 3505.35 1886.57 3505.38 1887.08C3505.42 1887.57 3505.43 1888.06 3505.43 1888.54V1906H3500.84V1890.47C3500.84 1889.27 3500.79 1888.13 3500.67 1887.05C3500.58 1885.96 3500.36 1885.09 3500.01 1884.44C3499.64 1883.74 3499.1 1883.22 3498.4 1882.88C3497.7 1882.52 3496.69 1882.34 3495.38 1882.34C3494.12 1882.34 3492.86 1882.65 3491.59 1883.27C3490.34 1883.89 3489.08 1884.68 3487.83 1885.64V1906H3483.24V1878.73H3487.83V1881.76C3489.26 1880.57 3490.69 1879.64 3492.1 1878.97C3493.54 1878.31 3495.06 1877.97 3496.67 1877.97C3498.52 1877.97 3500.1 1878.36 3501.38 1879.14C3502.68 1879.93 3503.65 1881.01 3504.29 1882.39C3506.14 1880.83 3507.83 1879.71 3509.36 1879.02C3510.89 1878.32 3512.53 1877.97 3514.27 1877.97C3517.27 1877.97 3519.47 1878.88 3520.89 1880.71C3522.32 1882.51 3523.04 1885.04 3523.04 1888.3V1906ZM3551.36 1898.14C3551.36 1900.63 3550.32 1902.67 3548.26 1904.27C3546.21 1905.86 3543.4 1906.66 3539.83 1906.66C3537.81 1906.66 3535.96 1906.42 3534.27 1905.95C3532.59 1905.46 3531.18 1904.93 3530.04 1904.36V1899.21H3530.29C3531.74 1900.3 3533.35 1901.17 3535.12 1901.83C3536.9 1902.46 3538.6 1902.78 3540.22 1902.78C3542.24 1902.78 3543.82 1902.45 3544.96 1901.8C3546.1 1901.15 3546.67 1900.12 3546.67 1898.72C3546.67 1897.65 3546.36 1896.84 3545.74 1896.28C3545.12 1895.73 3543.93 1895.26 3542.18 1894.87C3541.53 1894.72 3540.67 1894.55 3539.61 1894.35C3538.57 1894.16 3537.62 1893.95 3536.76 1893.72C3534.36 1893.08 3532.66 1892.16 3531.65 1890.94C3530.66 1889.7 3530.17 1888.19 3530.17 1886.4C3530.17 1885.27 3530.39 1884.21 3530.85 1883.22C3531.32 1882.23 3532.03 1881.34 3532.97 1880.56C3533.88 1879.8 3535.04 1879.19 3536.44 1878.75C3537.86 1878.3 3539.43 1878.07 3541.18 1878.07C3542.8 1878.07 3544.45 1878.27 3546.11 1878.68C3547.78 1879.07 3549.18 1879.55 3550.28 1880.12V1885.03H3550.04C3548.87 1884.17 3547.44 1883.44 3545.77 1882.86C3544.09 1882.25 3542.45 1881.95 3540.83 1881.95C3539.16 1881.95 3537.74 1882.28 3536.59 1882.93C3535.43 1883.56 3534.85 1884.52 3534.85 1885.79C3534.85 1886.91 3535.2 1887.75 3535.9 1888.32C3536.59 1888.89 3537.69 1889.36 3539.22 1889.72C3540.07 1889.91 3541.01 1890.11 3542.05 1890.3C3543.11 1890.5 3543.99 1890.68 3544.69 1890.84C3546.82 1891.33 3548.47 1892.17 3549.62 1893.35C3550.78 1894.56 3551.36 1896.15 3551.36 1898.14ZM3598.77 1892.38C3598.77 1896.82 3597.63 1900.33 3595.35 1902.9C3593.07 1905.47 3590.02 1906.76 3586.2 1906.76C3582.34 1906.76 3579.27 1905.47 3576.99 1902.9C3574.73 1900.33 3573.6 1896.82 3573.6 1892.38C3573.6 1887.93 3574.73 1884.43 3576.99 1881.85C3579.27 1879.27 3582.34 1877.97 3586.2 1877.97C3590.02 1877.97 3593.07 1879.27 3595.35 1881.85C3597.63 1884.43 3598.77 1887.93 3598.77 1892.38ZM3594.03 1892.38C3594.03 1888.85 3593.34 1886.22 3591.96 1884.52C3590.57 1882.79 3588.65 1881.93 3586.2 1881.93C3583.71 1881.93 3581.77 1882.79 3580.38 1884.52C3579.02 1886.22 3578.33 1888.85 3578.33 1892.38C3578.33 1895.79 3579.03 1898.39 3580.41 1900.17C3581.79 1901.92 3583.72 1902.8 3586.2 1902.8C3588.64 1902.8 3590.55 1901.93 3591.93 1900.19C3593.33 1898.43 3594.03 1895.83 3594.03 1892.38ZM3620.57 1872.46H3620.33C3619.82 1872.31 3619.16 1872.16 3618.35 1872.02C3617.53 1871.85 3616.82 1871.77 3616.2 1871.77C3614.23 1871.77 3612.8 1872.21 3611.9 1873.09C3611.02 1873.95 3610.58 1875.52 3610.58 1877.8V1878.73H3618.86V1882.59H3610.73V1906H3606.14V1882.59H3603.04V1878.73H3606.14V1877.83C3606.14 1874.59 3606.95 1872.11 3608.56 1870.38C3610.17 1868.64 3612.5 1867.77 3615.54 1867.77C3616.57 1867.77 3617.49 1867.82 3618.3 1867.91C3619.13 1868.01 3619.89 1868.13 3620.57 1868.26V1872.46ZM3663.66 1906H3659.07V1902.97C3657.53 1904.19 3656.04 1905.13 3654.63 1905.78C3653.21 1906.43 3651.65 1906.76 3649.94 1906.76C3647.08 1906.76 3644.85 1905.89 3643.25 1904.14C3641.66 1902.39 3640.86 1899.82 3640.86 1896.43V1878.73H3645.45V1894.26C3645.45 1895.64 3645.51 1896.83 3645.64 1897.82C3645.77 1898.8 3646.05 1899.64 3646.47 1900.34C3646.91 1901.05 3647.48 1901.57 3648.18 1901.9C3648.88 1902.22 3649.9 1902.39 3651.23 1902.39C3652.42 1902.39 3653.72 1902.08 3655.12 1901.46C3656.53 1900.84 3657.85 1900.05 3659.07 1899.09V1878.73H3663.66V1906ZM3692.18 1898.14C3692.18 1900.63 3691.14 1902.67 3689.08 1904.27C3687.03 1905.86 3684.22 1906.66 3680.65 1906.66C3678.64 1906.66 3676.78 1906.42 3675.09 1905.95C3673.41 1905.46 3672 1904.93 3670.86 1904.36V1899.21H3671.11C3672.56 1900.3 3674.17 1901.17 3675.94 1901.83C3677.72 1902.46 3679.42 1902.78 3681.04 1902.78C3683.06 1902.78 3684.64 1902.45 3685.78 1901.8C3686.92 1901.15 3687.49 1900.12 3687.49 1898.72C3687.49 1897.65 3687.18 1896.84 3686.56 1896.28C3685.94 1895.73 3684.75 1895.26 3683 1894.87C3682.35 1894.72 3681.49 1894.55 3680.43 1894.35C3679.39 1894.16 3678.44 1893.95 3677.58 1893.72C3675.18 1893.08 3673.48 1892.16 3672.47 1890.94C3671.48 1889.7 3670.99 1888.19 3670.99 1886.4C3670.99 1885.27 3671.21 1884.21 3671.67 1883.22C3672.14 1882.23 3672.85 1881.34 3673.79 1880.56C3674.7 1879.8 3675.86 1879.19 3677.26 1878.75C3678.68 1878.3 3680.25 1878.07 3682 1878.07C3683.62 1878.07 3685.27 1878.27 3686.93 1878.68C3688.6 1879.07 3690 1879.55 3691.1 1880.12V1885.03H3690.86C3689.69 1884.17 3688.26 1883.44 3686.59 1882.86C3684.91 1882.25 3683.27 1881.95 3681.65 1881.95C3679.98 1881.95 3678.56 1882.28 3677.41 1882.93C3676.25 1883.56 3675.67 1884.52 3675.67 1885.79C3675.67 1886.91 3676.02 1887.75 3676.72 1888.32C3677.41 1888.89 3678.51 1889.36 3680.04 1889.72C3680.89 1889.91 3681.83 1890.11 3682.88 1890.3C3683.93 1890.5 3684.81 1890.68 3685.51 1890.84C3687.64 1891.33 3689.29 1892.17 3690.44 1893.35C3691.6 1894.56 3692.18 1896.15 3692.18 1898.14ZM3721.6 1892.84H3701.5C3701.5 1894.52 3701.76 1895.98 3702.26 1897.24C3702.76 1898.47 3703.46 1899.49 3704.33 1900.29C3705.18 1901.07 3706.18 1901.65 3707.34 1902.04C3708.51 1902.44 3709.8 1902.63 3711.2 1902.63C3713.05 1902.63 3714.91 1902.26 3716.79 1901.53C3718.67 1900.78 3720.02 1900.05 3720.81 1899.33H3721.06V1904.34C3719.51 1904.99 3717.93 1905.54 3716.32 1905.98C3714.71 1906.42 3713.02 1906.63 3711.24 1906.63C3706.72 1906.63 3703.19 1905.41 3700.65 1902.97C3698.11 1900.51 3696.84 1897.03 3696.84 1892.52C3696.84 1888.06 3698.05 1884.52 3700.48 1881.9C3702.92 1879.28 3706.13 1877.97 3710.1 1877.97C3713.78 1877.97 3716.61 1879.05 3718.59 1881.2C3720.59 1883.34 3721.6 1886.4 3721.6 1890.35V1892.84ZM3717.13 1889.33C3717.11 1886.92 3716.5 1885.05 3715.3 1883.73C3714.11 1882.42 3712.29 1881.76 3709.85 1881.76C3707.39 1881.76 3705.43 1882.48 3703.97 1883.93C3702.52 1885.38 3701.7 1887.18 3701.5 1889.33H3717.13Z" fill="white"/>
<path d="M3407.88 1911.86H3724.04V1914.79H3407.88V1911.86Z" fill="white"/>
<rect x="3016" y="1948" width="56" height="56" fill="#D4EFF5"/>
<rect x="3029.24" y="1960.22" width="30.5455" height="30.5455" fill="#FFA500"/>
<path d="M3118.25 1981.4C3118.25 1984.04 3117.96 1986.34 3117.37 1988.31C3116.8 1990.26 3115.86 1991.89 3114.54 1993.19C3113.29 1994.43 3111.82 1995.33 3110.15 1995.9C3108.47 1996.47 3106.52 1996.76 3104.29 1996.76C3102.01 1996.76 3100.02 1996.46 3098.33 1995.85C3096.64 1995.25 3095.21 1994.36 3094.06 1993.19C3092.74 1991.86 3091.79 1990.25 3091.2 1988.36C3090.63 1986.47 3090.35 1984.15 3090.35 1981.4V1959.65H3095.18V1981.64C3095.18 1983.61 3095.31 1985.17 3095.57 1986.31C3095.85 1987.45 3096.3 1988.48 3096.94 1989.41C3097.65 1990.47 3098.62 1991.26 3099.84 1991.8C3101.08 1992.34 3102.56 1992.61 3104.29 1992.61C3106.03 1992.61 3107.51 1992.35 3108.73 1991.83C3109.95 1991.29 3110.93 1990.48 3111.66 1989.41C3112.29 1988.48 3112.74 1987.42 3113 1986.23C3113.28 1985.03 3113.42 1983.54 3113.42 1981.77V1959.65H3118.25V1981.4ZM3146.62 1988.14C3146.62 1990.63 3145.59 1992.67 3143.52 1994.27C3141.47 1995.86 3138.66 1996.66 3135.1 1996.66C3133.08 1996.66 3131.22 1996.42 3129.53 1995.95C3127.85 1995.46 3126.45 1994.93 3125.31 1994.36V1989.21H3125.55C3127 1990.3 3128.61 1991.17 3130.38 1991.83C3132.16 1992.46 3133.86 1992.78 3135.49 1992.78C3137.51 1992.78 3139.08 1992.45 3140.22 1991.8C3141.36 1991.15 3141.93 1990.12 3141.93 1988.72C3141.93 1987.65 3141.62 1986.84 3141 1986.28C3140.39 1985.73 3139.2 1985.26 3137.44 1984.87C3136.79 1984.72 3135.93 1984.55 3134.88 1984.35C3133.84 1984.16 3132.88 1983.95 3132.02 1983.72C3129.63 1983.08 3127.93 1982.16 3126.92 1980.94C3125.93 1979.7 3125.43 1978.19 3125.43 1976.4C3125.43 1975.27 3125.66 1974.21 3126.11 1973.22C3126.58 1972.23 3127.29 1971.34 3128.24 1970.56C3129.15 1969.8 3130.3 1969.19 3131.7 1968.75C3133.12 1968.3 3134.7 1968.07 3136.44 1968.07C3138.07 1968.07 3139.71 1968.27 3141.37 1968.68C3143.05 1969.07 3144.44 1969.55 3145.55 1970.12V1975.03H3145.3C3144.13 1974.17 3142.71 1973.44 3141.03 1972.86C3139.35 1972.25 3137.71 1971.95 3136.1 1971.95C3134.42 1971.95 3133.01 1972.28 3131.85 1972.93C3130.69 1973.56 3130.12 1974.52 3130.12 1975.79C3130.12 1976.91 3130.47 1977.75 3131.17 1978.32C3131.85 1978.89 3132.96 1979.36 3134.49 1979.72C3135.33 1979.91 3136.28 1980.11 3137.32 1980.3C3138.38 1980.5 3139.26 1980.68 3139.96 1980.84C3142.09 1981.33 3143.73 1982.17 3144.89 1983.35C3146.04 1984.56 3146.62 1986.15 3146.62 1988.14ZM3176.04 1982.84H3155.95C3155.95 1984.52 3156.2 1985.98 3156.7 1987.24C3157.21 1988.47 3157.9 1989.49 3158.78 1990.29C3159.62 1991.07 3160.63 1991.65 3161.78 1992.04C3162.95 1992.44 3164.24 1992.63 3165.64 1992.63C3167.49 1992.63 3169.36 1992.26 3171.23 1991.53C3173.12 1990.78 3174.46 1990.05 3175.26 1989.33H3175.5V1994.34C3173.96 1994.99 3172.38 1995.54 3170.77 1995.98C3169.15 1996.42 3167.46 1996.63 3165.69 1996.63C3161.16 1996.63 3157.63 1995.41 3155.09 1992.97C3152.55 1990.51 3151.28 1987.03 3151.28 1982.52C3151.28 1978.06 3152.5 1974.52 3154.92 1971.9C3157.36 1969.28 3160.57 1967.97 3164.54 1967.97C3168.22 1967.97 3171.05 1969.05 3173.04 1971.2C3175.04 1973.34 3176.04 1976.4 3176.04 1980.35V1982.84ZM3171.57 1979.33C3171.56 1976.92 3170.94 1975.05 3169.74 1973.73C3168.55 1972.42 3166.74 1971.76 3164.3 1971.76C3161.84 1971.76 3159.88 1972.48 3158.41 1973.93C3156.96 1975.38 3156.14 1977.18 3155.95 1979.33H3171.57ZM3220.74 1994.29C3219.21 1995.02 3217.75 1995.59 3216.37 1996C3215 1996.41 3213.55 1996.61 3212 1996.61C3210.03 1996.61 3208.22 1996.33 3206.58 1995.76C3204.94 1995.17 3203.53 1994.29 3202.36 1993.12C3201.17 1991.95 3200.25 1990.47 3199.6 1988.68C3198.95 1986.89 3198.62 1984.79 3198.62 1982.4C3198.62 1977.94 3199.84 1974.44 3202.28 1971.9C3204.74 1969.36 3207.98 1968.09 3212 1968.09C3213.56 1968.09 3215.09 1968.31 3216.59 1968.75C3218.1 1969.19 3219.49 1969.73 3220.74 1970.37V1975.47H3220.5C3219.1 1974.38 3217.65 1973.54 3216.15 1972.95C3214.67 1972.37 3213.22 1972.07 3211.81 1972.07C3209.2 1972.07 3207.14 1972.95 3205.63 1974.71C3204.13 1976.45 3203.38 1979.02 3203.38 1982.4C3203.38 1985.69 3204.12 1988.22 3205.58 1989.99C3207.06 1991.75 3209.14 1992.63 3211.81 1992.63C3212.73 1992.63 3213.68 1992.51 3214.64 1992.26C3215.6 1992.02 3216.46 1991.7 3217.23 1991.31C3217.89 1990.97 3218.52 1990.61 3219.11 1990.24C3219.69 1989.85 3220.16 1989.51 3220.5 1989.24H3220.74V1994.29ZM3249.89 1982.38C3249.89 1986.82 3248.75 1990.33 3246.47 1992.9C3244.19 1995.47 3241.14 1996.76 3237.32 1996.76C3233.46 1996.76 3230.39 1995.47 3228.11 1992.9C3225.85 1990.33 3224.72 1986.82 3224.72 1982.38C3224.72 1977.93 3225.85 1974.43 3228.11 1971.85C3230.39 1969.27 3233.46 1967.97 3237.32 1967.97C3241.14 1967.97 3244.19 1969.27 3246.47 1971.85C3248.75 1974.43 3249.89 1977.93 3249.89 1982.38ZM3245.16 1982.38C3245.16 1978.85 3244.46 1976.22 3243.08 1974.52C3241.7 1972.79 3239.78 1971.93 3237.32 1971.93C3234.83 1971.93 3232.89 1972.79 3231.51 1974.52C3230.14 1976.22 3229.46 1978.85 3229.46 1982.38C3229.46 1985.79 3230.15 1988.39 3231.53 1990.17C3232.92 1991.92 3234.84 1992.8 3237.32 1992.8C3239.76 1992.8 3241.67 1991.93 3243.06 1990.19C3244.46 1988.43 3245.16 1985.83 3245.16 1982.38ZM3280.26 1982.38C3280.26 1986.82 3279.12 1990.33 3276.84 1992.9C3274.57 1995.47 3271.51 1996.76 3267.69 1996.76C3263.83 1996.76 3260.76 1995.47 3258.49 1992.9C3256.22 1990.33 3255.09 1986.82 3255.09 1982.38C3255.09 1977.93 3256.22 1974.43 3258.49 1971.85C3260.76 1969.27 3263.83 1967.97 3267.69 1967.97C3271.51 1967.97 3274.57 1969.27 3276.84 1971.85C3279.12 1974.43 3280.26 1977.93 3280.26 1982.38ZM3275.53 1982.38C3275.53 1978.85 3274.83 1976.22 3273.45 1974.52C3272.07 1972.79 3270.15 1971.93 3267.69 1971.93C3265.2 1971.93 3263.26 1972.79 3261.88 1974.52C3260.51 1976.22 3259.83 1978.85 3259.83 1982.38C3259.83 1985.79 3260.52 1988.39 3261.9 1990.17C3263.29 1991.92 3265.22 1992.8 3267.69 1992.8C3270.13 1992.8 3272.04 1991.93 3273.43 1990.19C3274.83 1988.43 3275.53 1985.83 3275.53 1982.38ZM3312.15 1996H3306.09L3295.16 1984.06L3292.18 1986.89V1996H3287.59V1958.01H3292.18V1982.38L3305.43 1968.73H3311.22L3298.55 1981.33L3312.15 1996ZM3321.91 1964.16H3316.74V1959.4H3321.91V1964.16ZM3321.62 1996H3317.03V1968.73H3321.62V1996ZM3353.53 1982.84H3333.44C3333.44 1984.52 3333.69 1985.98 3334.19 1987.24C3334.7 1988.47 3335.39 1989.49 3336.27 1990.29C3337.11 1991.07 3338.12 1991.65 3339.27 1992.04C3340.44 1992.44 3341.73 1992.63 3343.13 1992.63C3344.98 1992.63 3346.85 1992.26 3348.72 1991.53C3350.61 1990.78 3351.95 1990.05 3352.75 1989.33H3352.99V1994.34C3351.45 1994.99 3349.87 1995.54 3348.26 1995.98C3346.64 1996.42 3344.95 1996.63 3343.18 1996.63C3338.65 1996.63 3335.12 1995.41 3332.58 1992.97C3330.04 1990.51 3328.77 1987.03 3328.77 1982.52C3328.77 1978.06 3329.99 1974.52 3332.41 1971.9C3334.85 1969.28 3338.06 1967.97 3342.03 1967.97C3345.71 1967.97 3348.54 1969.05 3350.53 1971.2C3352.53 1973.34 3353.53 1976.4 3353.53 1980.35V1982.84ZM3349.06 1979.33C3349.05 1976.92 3348.43 1975.05 3347.23 1973.73C3346.04 1972.42 3344.23 1971.76 3341.79 1971.76C3339.33 1971.76 3337.37 1972.48 3335.9 1973.93C3334.45 1975.38 3333.63 1977.18 3333.44 1979.33H3349.06ZM3392.23 1995.76C3391.36 1995.98 3390.42 1996.17 3389.39 1996.32C3388.38 1996.46 3387.48 1996.54 3386.68 1996.54C3383.9 1996.54 3381.78 1995.79 3380.34 1994.29C3378.89 1992.79 3378.16 1990.39 3378.16 1987.09V1972.59H3375.06V1968.73H3378.16V1960.89H3382.75V1968.73H3392.23V1972.59H3382.75V1985.01C3382.75 1986.45 3382.79 1987.57 3382.85 1988.38C3382.92 1989.18 3383.14 1989.93 3383.53 1990.63C3383.89 1991.28 3384.38 1991.76 3385 1992.07C3385.63 1992.36 3386.59 1992.51 3387.88 1992.51C3388.63 1992.51 3389.41 1992.4 3390.22 1992.19C3391.04 1991.96 3391.62 1991.78 3391.98 1991.63H3392.23V1995.76ZM3421.03 1982.38C3421.03 1986.82 3419.89 1990.33 3417.62 1992.9C3415.34 1995.47 3412.29 1996.76 3408.46 1996.76C3404.6 1996.76 3401.54 1995.47 3399.26 1992.9C3396.99 1990.33 3395.86 1986.82 3395.86 1982.38C3395.86 1977.93 3396.99 1974.43 3399.26 1971.85C3401.54 1969.27 3404.6 1967.97 3408.46 1967.97C3412.29 1967.97 3415.34 1969.27 3417.62 1971.85C3419.89 1974.43 3421.03 1977.93 3421.03 1982.38ZM3416.3 1982.38C3416.3 1978.85 3415.61 1976.22 3414.22 1974.52C3412.84 1972.79 3410.92 1971.93 3408.46 1971.93C3405.97 1971.93 3404.03 1972.79 3402.65 1974.52C3401.28 1976.22 3400.6 1978.85 3400.6 1982.38C3400.6 1985.79 3401.29 1988.39 3402.67 1990.17C3404.06 1991.92 3405.99 1992.8 3408.46 1992.8C3410.9 1992.8 3412.81 1991.93 3414.2 1990.19C3415.6 1988.43 3416.3 1985.83 3416.3 1982.38ZM3467.86 1996H3463.27V1993.14C3461.95 1994.28 3460.58 1995.17 3459.14 1995.8C3457.71 1996.44 3456.16 1996.76 3454.48 1996.76C3451.23 1996.76 3448.64 1995.5 3446.72 1993C3444.81 1990.49 3443.86 1987.02 3443.86 1982.57C3443.86 1980.26 3444.19 1978.2 3444.84 1976.4C3445.51 1974.59 3446.4 1973.05 3447.52 1971.78C3448.63 1970.54 3449.92 1969.6 3451.38 1968.95C3452.86 1968.3 3454.39 1967.97 3455.97 1967.97C3457.4 1967.97 3458.67 1968.13 3459.78 1968.44C3460.89 1968.73 3462.05 1969.19 3463.27 1969.83V1958.01H3467.86V1996ZM3463.27 1989.29V1973.64C3462.03 1973.08 3460.93 1972.7 3459.95 1972.49C3458.97 1972.28 3457.91 1972.17 3456.75 1972.17C3454.18 1972.17 3452.18 1973.07 3450.75 1974.86C3449.31 1976.65 3448.6 1979.19 3448.6 1982.47C3448.6 1985.71 3449.15 1988.18 3450.26 1989.87C3451.36 1991.55 3453.14 1992.39 3455.58 1992.39C3456.88 1992.39 3458.2 1992.1 3459.54 1991.53C3460.87 1990.95 3462.11 1990.2 3463.27 1989.29ZM3499.72 1982.84H3479.63C3479.63 1984.52 3479.88 1985.98 3480.38 1987.24C3480.89 1988.47 3481.58 1989.49 3482.46 1990.29C3483.31 1991.07 3484.31 1991.65 3485.46 1992.04C3486.63 1992.44 3487.92 1992.63 3489.32 1992.63C3491.18 1992.63 3493.04 1992.26 3494.91 1991.53C3496.8 1990.78 3498.14 1990.05 3498.94 1989.33H3499.18V1994.34C3497.64 1994.99 3496.06 1995.54 3494.45 1995.98C3492.84 1996.42 3491.14 1996.63 3489.37 1996.63C3484.84 1996.63 3481.31 1995.41 3478.77 1992.97C3476.23 1990.51 3474.96 1987.03 3474.96 1982.52C3474.96 1978.06 3476.18 1974.52 3478.6 1971.9C3481.04 1969.28 3484.25 1967.97 3488.22 1967.97C3491.9 1967.97 3494.73 1969.05 3496.72 1971.2C3498.72 1973.34 3499.72 1976.4 3499.72 1980.35V1982.84ZM3495.25 1979.33C3495.24 1976.92 3494.63 1975.05 3493.42 1973.73C3492.23 1972.42 3490.42 1971.76 3487.98 1971.76C3485.52 1971.76 3483.56 1972.48 3482.09 1973.93C3480.65 1975.38 3479.82 1977.18 3479.63 1979.33H3495.25ZM3520.84 1995.76C3519.98 1995.98 3519.03 1996.17 3518.01 1996.32C3517 1996.46 3516.09 1996.54 3515.3 1996.54C3512.51 1996.54 3510.4 1995.79 3508.95 1994.29C3507.5 1992.79 3506.78 1990.39 3506.78 1987.09V1972.59H3503.68V1968.73H3506.78V1960.89H3511.37V1968.73H3520.84V1972.59H3511.37V1985.01C3511.37 1986.45 3511.4 1987.57 3511.46 1988.38C3511.53 1989.18 3511.76 1989.93 3512.15 1990.63C3512.51 1991.28 3512.99 1991.76 3513.61 1992.07C3514.25 1992.36 3515.21 1992.51 3516.49 1992.51C3517.24 1992.51 3518.02 1992.4 3518.84 1992.19C3519.65 1991.96 3520.24 1991.78 3520.59 1991.63H3520.84V1995.76ZM3549.23 1982.84H3529.14C3529.14 1984.52 3529.39 1985.98 3529.9 1987.24C3530.4 1988.47 3531.09 1989.49 3531.97 1990.29C3532.82 1991.07 3533.82 1991.65 3534.97 1992.04C3536.15 1992.44 3537.43 1992.63 3538.83 1992.63C3540.69 1992.63 3542.55 1992.26 3544.42 1991.53C3546.31 1990.78 3547.65 1990.05 3548.45 1989.33H3548.7V1994.34C3547.15 1994.99 3545.57 1995.54 3543.96 1995.98C3542.35 1996.42 3540.65 1996.63 3538.88 1996.63C3534.36 1996.63 3530.82 1995.41 3528.29 1992.97C3525.75 1990.51 3524.48 1987.03 3524.48 1982.52C3524.48 1978.06 3525.69 1974.52 3528.11 1971.9C3530.56 1969.28 3533.76 1967.97 3537.73 1967.97C3541.41 1967.97 3544.24 1969.05 3546.23 1971.2C3548.23 1973.34 3549.23 1976.4 3549.23 1980.35V1982.84ZM3544.76 1979.33C3544.75 1976.92 3544.14 1975.05 3542.93 1973.73C3541.75 1972.42 3539.93 1971.76 3537.49 1971.76C3535.03 1971.76 3533.07 1972.48 3531.61 1973.93C3530.16 1975.38 3529.33 1977.18 3529.14 1979.33H3544.76ZM3576.36 1994.29C3574.83 1995.02 3573.37 1995.59 3571.99 1996C3570.62 1996.41 3569.16 1996.61 3567.62 1996.61C3565.65 1996.61 3563.84 1996.33 3562.2 1995.76C3560.55 1995.17 3559.14 1994.29 3557.97 1993.12C3556.78 1991.95 3555.86 1990.47 3555.21 1988.68C3554.56 1986.89 3554.24 1984.79 3554.24 1982.4C3554.24 1977.94 3555.46 1974.44 3557.9 1971.9C3560.36 1969.36 3563.6 1968.09 3567.62 1968.09C3569.18 1968.09 3570.71 1968.31 3572.21 1968.75C3573.72 1969.19 3575.1 1969.73 3576.36 1970.37V1975.47H3576.11C3574.71 1974.38 3573.26 1973.54 3571.77 1972.95C3570.29 1972.37 3568.84 1972.07 3567.42 1972.07C3564.82 1972.07 3562.76 1972.95 3561.24 1974.71C3559.75 1976.45 3559 1979.02 3559 1982.4C3559 1985.69 3559.73 1988.22 3561.2 1989.99C3562.68 1991.75 3564.75 1992.63 3567.42 1992.63C3568.35 1992.63 3569.29 1992.51 3570.25 1992.26C3571.21 1992.02 3572.08 1991.7 3572.84 1991.31C3573.51 1990.97 3574.13 1990.61 3574.72 1990.24C3575.31 1989.85 3575.77 1989.51 3576.11 1989.24H3576.36V1994.29ZM3596.42 1995.76C3595.56 1995.98 3594.62 1996.17 3593.59 1996.32C3592.58 1996.46 3591.68 1996.54 3590.88 1996.54C3588.1 1996.54 3585.98 1995.79 3584.54 1994.29C3583.09 1992.79 3582.36 1990.39 3582.36 1987.09V1972.59H3579.26V1968.73H3582.36V1960.89H3586.95V1968.73H3596.42V1972.59H3586.95V1985.01C3586.95 1986.45 3586.98 1987.57 3587.05 1988.38C3587.11 1989.18 3587.34 1989.93 3587.73 1990.63C3588.09 1991.28 3588.58 1991.76 3589.2 1992.07C3589.83 1992.36 3590.79 1992.51 3592.08 1992.51C3592.83 1992.51 3593.61 1992.4 3594.42 1992.19C3595.24 1991.96 3595.82 1991.78 3596.18 1991.63H3596.42V1995.76ZM3659.36 1996H3654.77V1980.47C3654.77 1979.3 3654.72 1978.17 3654.6 1977.08C3654.51 1975.99 3654.29 1975.12 3653.94 1974.47C3653.57 1973.77 3653.03 1973.24 3652.33 1972.88C3651.63 1972.52 3650.62 1972.34 3649.31 1972.34C3648.02 1972.34 3646.73 1972.67 3645.45 1973.32C3644.16 1973.95 3642.88 1974.77 3641.59 1975.76C3641.64 1976.14 3641.68 1976.57 3641.71 1977.08C3641.75 1977.57 3641.76 1978.06 3641.76 1978.54V1996H3637.17V1980.47C3637.17 1979.27 3637.11 1978.13 3637 1977.05C3636.9 1975.96 3636.68 1975.09 3636.34 1974.44C3635.97 1973.74 3635.43 1973.22 3634.73 1972.88C3634.03 1972.52 3633.02 1972.34 3631.7 1972.34C3630.45 1972.34 3629.19 1972.65 3627.92 1973.27C3626.67 1973.89 3625.41 1974.68 3624.16 1975.64V1996H3619.57V1968.73H3624.16V1971.76C3625.59 1970.57 3627.02 1969.64 3628.43 1968.97C3629.86 1968.31 3631.39 1967.97 3633 1967.97C3634.85 1967.97 3636.42 1968.36 3637.71 1969.14C3639.01 1969.93 3639.98 1971.01 3640.61 1972.39C3642.47 1970.83 3644.16 1969.71 3645.69 1969.02C3647.22 1968.32 3648.86 1967.97 3650.6 1967.97C3653.59 1967.97 3655.8 1968.88 3657.22 1970.71C3658.65 1972.51 3659.36 1975.04 3659.36 1978.3V1996ZM3691.03 1982.84H3670.94C3670.94 1984.52 3671.19 1985.98 3671.69 1987.24C3672.2 1988.47 3672.89 1989.49 3673.77 1990.29C3674.61 1991.07 3675.62 1991.65 3676.77 1992.04C3677.94 1992.44 3679.23 1992.63 3680.63 1992.63C3682.48 1992.63 3684.35 1992.26 3686.22 1991.53C3688.11 1990.78 3689.45 1990.05 3690.25 1989.33H3690.49V1994.34C3688.95 1994.99 3687.37 1995.54 3685.76 1995.98C3684.14 1996.42 3682.45 1996.63 3680.68 1996.63C3676.15 1996.63 3672.62 1995.41 3670.08 1992.97C3667.54 1990.51 3666.27 1987.03 3666.27 1982.52C3666.27 1978.06 3667.49 1974.52 3669.91 1971.9C3672.35 1969.28 3675.56 1967.97 3679.53 1967.97C3683.21 1967.97 3686.04 1969.05 3688.03 1971.2C3690.03 1973.34 3691.03 1976.4 3691.03 1980.35V1982.84ZM3686.56 1979.33C3686.55 1976.92 3685.93 1975.05 3684.73 1973.73C3683.54 1972.42 3681.73 1971.76 3679.29 1971.76C3676.83 1971.76 3674.87 1972.48 3673.4 1973.93C3671.95 1975.38 3671.13 1977.18 3670.94 1979.33H3686.56Z" fill="white"/>
</g>
<defs>
<filter id="filter0_f" x="151.5" y="842" width="3493.5" height="481" filterUnits="userSpaceOnUse" color-interpolation-filters="sRGB">
<feFlood flood-opacity="0" result="BackgroundImageFix"/>
<feBlend mode="normal" in="SourceGraphic" in2="BackgroundImageFix" result="shape"/>
<feGaussianBlur stdDeviation="15" result="effect1_foregroundBlur"/>
</filter>
<filter id="filter1_f" x="20.5" y="325.5" width="3841" height="996.5" filterUnits="userSpaceOnUse" color-interpolation-filters="sRGB">
<feFlood flood-opacity="0" result="BackgroundImageFix"/>
<feBlend mode="normal" in="SourceGraphic" in2="BackgroundImageFix" result="shape"/>
<feGaussianBlur stdDeviation="7.5" result="effect1_foregroundBlur"/>
</filter>
<radialGradient id="paint0_radial" cx="0" cy="0" r="1" gradientUnits="userSpaceOnUse" gradientTransform="translate(1920 1080) rotate(90) scale(1080 1920)">
<stop stop-color="#FAFFDC"/>
<stop offset="1" stop-color="#B0FAFF"/>
</radialGradient>
<linearGradient id="paint1_linear" x1="2522" y1="1009" x2="2522" y2="1421.1" gradientUnits="userSpaceOnUse">
<stop stop-color="#1A7E3E"/>
<stop offset="1" stop-color="#018F73"/>
</linearGradient>
<radialGradient id="paint2_radial" cx="0" cy="0" r="1" gradientUnits="userSpaceOnUse" gradientTransform="translate(2246.38 1720.72) rotate(90) scale(299.719 11.069)">
<stop stop-color="#C4C4C4"/>
<stop offset="1" stop-color="#ACACAC"/>
</radialGradient>
<radialGradient id="paint3_radial" cx="0" cy="0" r="1" gradientUnits="userSpaceOnUse" gradientTransform="translate(2796.51 1720.72) rotate(90) scale(299.719 11.069)">
<stop stop-color="#C4C4C4"/>
<stop offset="1" stop-color="#ACACAC"/>
</radialGradient>
<linearGradient id="paint4_linear" x1="2246.5" y1="1461" x2="2246.5" y2="1622" gradientUnits="userSpaceOnUse">
<stop stop-color="#1A7E3E"/>
<stop offset="1" stop-color="#018F73"/>
</linearGradient>
<linearGradient id="paint5_linear" x1="2797.5" y1="1461" x2="2797.5" y2="1622" gradientUnits="userSpaceOnUse">
<stop stop-color="#1A7E3E"/>
<stop offset="1" stop-color="#018F73"/>
</linearGradient>
<linearGradient id="paint6_linear" x1="2522" y1="1660" x2="2522" y2="1821" gradientUnits="userSpaceOnUse">
<stop stop-color="#1A7E3E"/>
<stop offset="1" stop-color="#018F73"/>
</linearGradient>
<clipPath id="clip0">
<rect width="3840" height="2160" fill="white"/>
</clipPath>
</defs>
</svg>
