<svg width="130" height="80" viewBox="0 0 130 80" fill="none" xmlns="http://www.w3.org/2000/svg">
<g clip-path="url(#clip0)">
<rect x="-42.0654" y="-13.4355" width="207.315" height="102.815" fill="#001B69"/>
<rect x="53.1641" y="-15.9639" width="24.4395" height="105.343" fill="white"/>
<rect x="-42.0654" y="29.5444" width="207.315" height="22.754" fill="white"/>
<rect x="-48.3984" y="81.1016" width="236.741" height="16.7395" transform="rotate(-24.4727 -48.3984 81.1016)" fill="white"/>
<rect x="-41.229" y="-16.3335" width="236.741" height="16.7593" transform="rotate(24.5181 -41.229 -16.3335)" fill="white"/>
<rect x="-43.751" y="34.6006" width="209" height="12.6411" fill="#C9072A"/>
<rect x="72.5474" y="-64" width="209" height="14.3266" transform="rotate(90 72.5474 -64)" fill="#C9072A"/>
<rect x="174.4" y="-6.0332" width="247.922" height="8.75783" transform="rotate(155.602 174.4 -6.0332)" fill="#C9072A"/>
<rect x="176.191" y="95.9697" width="247.922" height="8.40755" transform="rotate(-155.582 176.191 95.9697)" fill="#C9072A"/>
<rect x="2.59961" y="29.5444" width="55.621" height="5.05645" fill="white"/>
<rect x="72.5474" y="29.5444" width="55.621" height="5.05645" fill="white"/>
<rect x="72.5474" y="47.2417" width="55.621" height="5.05645" fill="white"/>
<path d="M2.59961 47.2417H58.2206V52.2982H2.59961V47.2417Z" fill="white"/>
</g>
<defs>
<clipPath id="clip0">
<rect width="130" height="80" fill="white"/>
</clipPath>
</defs>
</svg>
