<svg version="1.1" xmlns="http://www.w3.org/2000/svg" xmlns:xlink="http://www.w3.org/1999/xlink" x="0px" y="0px" viewBox="0 0 1000 1000" enable-background="new 0 0 1000 1000" xml:space="preserve">
    <path d="M978.6,447.2c-69.5,80.2-192.4,212.7-192.4,212.7s20.1,145.5,31.4,244.8c4.9,50.6-33.6,72.5-77.2,52.8C657.4,918,531.2,856.8,502.8,843c-28.9,13.6-156.4,73.8-240.2,113.2c-44.1,19.7-83.1-2.2-78.1-52.7c11.4-99.2,31.7-244.5,31.7-244.5S91.9,526.8,21.6,446.7c-24.8-29.1-8.9-70.4,40.1-78.1c99.9-17.9,254.8-46.4,254.8-46.4s84.7-148,138.3-238.6c29.5-55.1,49.9-48.8,53.4-47.2c9.1,3,23.4,13.7,42.2,47.2c53,90.8,136.7,239,136.7,239s153.1,28.5,251.8,46.5C987.3,376.7,1003.1,418.1,978.6,447.2z"/>
</svg>
