<svg width="208" height="439" viewBox="0 0 208 439" fill="none" xmlns="http://www.w3.org/2000/svg">
<path d="M23.1868 153.577L102.82 193.805L181.187 153.588V2.49998H23.1868V153.577Z" fill="#62AC04" stroke="#001A23" stroke-width="5"/>
<path d="M142.264 117.612H131.768V145H114.384V117.612H62.396V101.704L114.384 35.12H131.768V101.868H142.264V117.612ZM114.384 101.868V62.508L83.224 101.868H114.384Z" fill="white"/>
<path d="M7.68677 365.11L106.187 266.11L40.6868 372.11L7.68677 365.11Z" fill="#343434"/>
<path d="M68.1868 326.61L104.687 267.61L200.687 366.61L156.687 382.61L68.1868 326.61Z" fill="#6C6B6B"/>
<path d="M4.15125 361.948L106.187 259.61" stroke="#001A23" stroke-width="10"/>
<path d="M99.1866 259.61L204.167 363.019" stroke="#001A23" stroke-width="10"/>
<path d="M38.6868 348.657L48.6868 324.61V434.61H38.6868V348.657Z" fill="#C4C4C4"/>
<rect x="48.6868" y="324.61" width="110" height="110" fill="#D4EFF5"/>
<rect x="76.6868" y="350.61" width="56" height="56" fill="#FFA500" stroke="#001A23" stroke-width="4"/>
<path d="M74.6868 378.11H134.687" stroke="#001A23" stroke-width="5"/>
<line x1="105.187" y1="348.61" x2="105.187" y2="408.61" stroke="#001A23" stroke-width="5"/>
<line x1="160.665" y1="324.11" x2="48.6648" y2="323.128" stroke="#001A23" stroke-width="5"/>
<line x1="161.823" y1="378.264" x2="199.823" y2="364.264" stroke="#001A23" stroke-width="5"/>
<path d="M8.00012 362.61L35.5001 368.61" stroke="#001A23" stroke-width="5"/>
<line x1="48.0021" y1="322.554" x2="37.0021" y2="349.554" stroke="#001A23" stroke-width="5"/>
<line x1="37.1869" y1="348.61" x2="37.1869" y2="438.61" stroke="#001A23" stroke-width="5"/>
<line x1="161.187" y1="324.61" x2="161.187" y2="438.61" stroke="#001A23" stroke-width="5"/>
<line x1="38.6869" y1="436.11" x2="158.687" y2="436.11" stroke="#001A23" stroke-width="5"/>
</svg>
