<svg width="261" height="452" viewBox="0 0 261 452" fill="none" xmlns="http://www.w3.org/2000/svg">
<path d="M53.1865 153.577L132.819 193.805L211.187 153.588V2.49998H53.1865V153.577Z" fill="#A9AC04" stroke="#001A23" stroke-width="5"/>
<path d="M167.984 108.366C167.984 119.628 164.43 128.812 157.324 135.918C150.326 143.025 141.634 146.633 131.248 146.742C121.736 146.633 113.7 144.337 107.14 139.854C100.58 135.372 95.5504 128.648 92.0518 119.682L109.928 113.942C114.629 124.001 121.626 128.976 130.92 128.866C136.714 128.866 141.416 127.062 145.024 123.454C148.741 119.737 150.6 115.09 150.6 109.514C150.49 99.893 145.516 94.481 135.676 93.2783H130.592V76.0583H135.676C142.782 76.0583 146.336 72.4503 146.336 65.2343C146.336 60.9703 144.805 57.4717 141.744 54.7383C138.682 52.005 134.965 50.6383 130.592 50.6383C123.266 50.6383 117.472 54.465 113.208 62.1183L96.8078 57.0343C98.7758 50.693 102.821 45.117 108.944 40.3063C115.176 35.4957 122.228 33.0357 130.1 32.9263C139.393 32.9263 147.32 36.2063 153.88 42.7663C160.44 49.217 163.72 57.089 163.72 66.3823C163.829 74.145 161.314 80.1037 156.176 84.2583C163.829 89.6157 167.765 97.6517 167.984 108.366Z" fill="white"/>
<rect x="100.107" y="267.667" width="73.3511" height="183.378" fill="#C5D6D6"/>
<path d="M85.8954 289.673L100.107 267.667V351.104H85.8954V289.673Z" fill="#C4C4C4"/>
<path d="M107.442 364.858H131.281V378.611H107.442V364.858Z" fill="#001A23"/>
<rect x="141.367" y="364.858" width="23.8391" height="13.7533" fill="#001A23"/>
<path d="M107.442 336.434H131.281V350.187H107.442V336.434Z" fill="#001A23"/>
<rect x="141.367" y="336.434" width="23.8391" height="13.7533" fill="#001A23"/>
<path d="M107.442 308.011H131.281V321.764H107.442V308.011Z" fill="#001A23"/>
<rect x="141.367" y="308.011" width="23.8391" height="13.7533" fill="#001A23"/>
<path d="M107.442 279.587H131.282V293.34H107.442V279.587Z" fill="#001A23"/>
<rect x="141.367" y="279.587" width="23.8391" height="13.7533" fill="#001A23"/>
<path d="M107.442 393.281H131.281V407.035H107.442V393.281Z" fill="#001A23"/>
<rect x="141.367" y="393.281" width="23.8391" height="13.7533" fill="#001A23"/>
<path d="M107.442 421.705H131.281V435.458H107.442V421.705Z" fill="#001A23"/>
<rect x="141.367" y="421.705" width="23.8391" height="13.7533" fill="#001A23"/>
<path d="M3.83374 378.153L17.5871 350.188V451.045H3.83374V378.153Z" fill="#C4C4C4"/>
<rect x="18.0872" y="350.688" width="81.52" height="99.8578" fill="#D4EFF5" stroke="#001A23"/>
<line x1="17.5872" y1="369.859" x2="100.107" y2="369.859" stroke="#001A23"/>
<line x1="17.5872" y1="390.948" x2="100.107" y2="390.948" stroke="#001A23"/>
<line x1="17.5872" y1="412.036" x2="100.107" y2="412.036" stroke="#001A23"/>
<line x1="17.5872" y1="431.291" x2="100.107" y2="431.291" stroke="#001A23"/>
<rect x="173.958" y="314.012" width="81.52" height="136.533" fill="#F1FAFC" stroke="#001A23"/>
<line x1="191.962" y1="330.933" x2="191.962" y2="352.022" stroke="#001A23" stroke-width="4"/>
<line x1="241.474" y1="330.933" x2="241.474" y2="352.022" stroke="#001A23" stroke-width="4"/>
<line x1="216.718" y1="330.933" x2="216.718" y2="352.022" stroke="#001A23" stroke-width="4"/>
<line x1="191.962" y1="368.525" x2="191.962" y2="389.614" stroke="#001A23" stroke-width="4"/>
<line x1="241.474" y1="368.525" x2="241.474" y2="389.614" stroke="#001A23" stroke-width="4"/>
<line x1="216.718" y1="368.525" x2="216.718" y2="389.614" stroke="#001A23" stroke-width="4"/>
<line x1="191.962" y1="404.284" x2="191.962" y2="425.373" stroke="#001A23" stroke-width="4"/>
<line x1="241.474" y1="404.284" x2="241.474" y2="425.373" stroke="#001A23" stroke-width="4"/>
<line x1="216.718" y1="404.284" x2="216.718" y2="425.373" stroke="#001A23" stroke-width="4"/>
<line x1="4.18774" y1="449.045" x2="256.332" y2="449.045" stroke="#001A23" stroke-width="4"/>
<line x1="2.18774" y1="451.045" x2="2.18774" y2="378.611" stroke="#001A23" stroke-width="4"/>
<path d="M2.35407 379.528L19.3165 347.437" stroke="#001A23" stroke-width="4"/>
<line x1="17.941" y1="348.188" x2="86.7077" y2="348.188" stroke="#001A23" stroke-width="4"/>
<line x1="84.7078" y1="351.104" x2="84.7078" y2="290.59" stroke="#001A23" stroke-width="4"/>
<path d="M84.4155 291.507L101.836 264.917" stroke="#001A23" stroke-width="4"/>
<line x1="100.461" y1="265.667" x2="173.812" y2="265.667" stroke="#001A23" stroke-width="4"/>
<path d="M174.729 264V314.429" stroke="#001A23" stroke-width="4"/>
<path d="M174.729 311.678H260" stroke="#001A23" stroke-width="4"/>
<line x1="258.332" y1="313.512" x2="258.332" y2="451.046" stroke="#001A23" stroke-width="4"/>
</svg>
