<svg width="208" height="439" viewBox="0 0 208 439" fill="none" xmlns="http://www.w3.org/2000/svg">
<path d="M23.1865 153.577L102.819 193.805L181.187 153.588V2.49998H23.1865V153.577Z" fill="#A9AC04" stroke="#001A23" stroke-width="5"/>
<path d="M137.984 108.366C137.984 119.628 134.43 128.812 127.324 135.918C120.326 143.025 111.634 146.633 101.248 146.742C91.7358 146.633 83.6998 144.337 77.1398 139.854C70.5798 135.372 65.5504 128.648 62.0518 119.682L79.9278 113.942C84.6291 124.001 91.6264 128.976 100.92 128.866C106.714 128.866 111.416 127.062 115.024 123.454C118.741 119.737 120.6 115.09 120.6 109.514C120.49 99.893 115.516 94.481 105.676 93.2783H100.592V76.0583H105.676C112.782 76.0583 116.336 72.4503 116.336 65.2343C116.336 60.9703 114.805 57.4717 111.744 54.7383C108.682 52.005 104.965 50.6383 100.592 50.6383C93.2664 50.6383 87.4718 54.465 83.2078 62.1183L66.8078 57.0343C68.7758 50.693 72.8211 45.117 78.9438 40.3063C85.1758 35.4957 92.2278 33.0357 100.1 32.9263C109.393 32.9263 117.32 36.2063 123.88 42.7663C130.44 49.217 133.72 57.089 133.72 66.3823C133.829 74.145 131.314 80.1037 126.176 84.2583C133.829 89.6157 137.765 97.6517 137.984 108.366Z" fill="white"/>
<path d="M7.68652 365.11L106.187 266.11L40.6865 372.11L7.68652 365.11Z" fill="#343434"/>
<path d="M68.1865 326.61L104.687 267.61L200.687 366.61L156.687 382.61L68.1865 326.61Z" fill="#6C6B6B"/>
<path d="M4.151 361.948L106.187 259.61" stroke="#001A23" stroke-width="10"/>
<path d="M99.1864 259.61L204.167 363.019" stroke="#001A23" stroke-width="10"/>
<path d="M38.6865 348.657L48.6865 324.61V434.61H38.6865V348.657Z" fill="#C4C4C4"/>
<rect x="48.6865" y="324.61" width="110" height="110" fill="#D4EFF5"/>
<rect x="76.6865" y="350.61" width="56" height="56" fill="#FFA500" stroke="#001A23" stroke-width="4"/>
<path d="M74.6865 378.11H134.687" stroke="#001A23" stroke-width="5"/>
<line x1="105.187" y1="348.61" x2="105.187" y2="408.61" stroke="#001A23" stroke-width="5"/>
<line x1="160.665" y1="324.11" x2="48.6646" y2="323.128" stroke="#001A23" stroke-width="5"/>
<line x1="161.822" y1="378.264" x2="199.822" y2="364.264" stroke="#001A23" stroke-width="5"/>
<path d="M7.99988 362.61L35.4999 368.61" stroke="#001A23" stroke-width="5"/>
<line x1="48.0019" y1="322.554" x2="37.0019" y2="349.554" stroke="#001A23" stroke-width="5"/>
<line x1="37.1866" y1="348.61" x2="37.1866" y2="438.61" stroke="#001A23" stroke-width="5"/>
<line x1="161.187" y1="324.61" x2="161.187" y2="438.61" stroke="#001A23" stroke-width="5"/>
<line x1="38.6866" y1="436.11" x2="158.687" y2="436.11" stroke="#001A23" stroke-width="5"/>
</svg>
