<svg width="208" height="439" viewBox="0 0 208 439" fill="none" xmlns="http://www.w3.org/2000/svg">
<path d="M23.1868 153.577L102.82 193.805L181.187 153.588V2.49998H23.1868V153.577Z" fill="#DEC806" stroke="#001A23" stroke-width="5"/>
<path d="M140.608 144.61H65.824C66.5893 118.48 79.7093 98.1983 105.184 83.7663C117.648 77.2063 123.661 71.029 123.224 65.2343C123.224 61.0797 121.42 57.6357 117.812 54.9023C114.313 52.169 109.721 50.693 104.036 50.4744C93.7587 51.2397 86.816 56.433 83.208 66.0543L65.824 60.9703C68.6667 53.0983 73.368 46.4837 79.928 41.1263C86.5973 35.6597 94.36 32.9263 103.216 32.9263C113.603 32.9263 122.404 36.097 129.62 42.4383C136.945 48.7797 140.608 56.1597 140.608 64.5783C140.28 78.4637 131.861 89.6703 115.352 98.1983C99.7173 107.273 90.3693 116.84 87.308 126.898H140.608V144.61Z" fill="white"/>
<path d="M7.68677 365.11L106.187 266.11L40.6868 372.11L7.68677 365.11Z" fill="#343434"/>
<path d="M68.1868 326.61L104.687 267.61L200.687 366.61L156.687 382.61L68.1868 326.61Z" fill="#6C6B6B"/>
<path d="M4.15125 361.948L106.187 259.61" stroke="#001A23" stroke-width="10"/>
<path d="M99.1866 259.61L204.167 363.019" stroke="#001A23" stroke-width="10"/>
<path d="M38.6868 348.657L48.6868 324.61V434.61H38.6868V348.657Z" fill="#C4C4C4"/>
<rect x="48.6868" y="324.61" width="110" height="110" fill="#D4EFF5"/>
<rect x="76.6868" y="350.61" width="56" height="56" fill="#FFA500" stroke="#001A23" stroke-width="4"/>
<path d="M74.6868 378.11H134.687" stroke="#001A23" stroke-width="5"/>
<line x1="105.187" y1="348.61" x2="105.187" y2="408.61" stroke="#001A23" stroke-width="5"/>
<line x1="160.665" y1="324.11" x2="48.6647" y2="323.128" stroke="#001A23" stroke-width="5"/>
<line x1="161.823" y1="378.264" x2="199.822" y2="364.264" stroke="#001A23" stroke-width="5"/>
<path d="M8 362.61L35.5 368.61" stroke="#001A23" stroke-width="5"/>
<line x1="48.002" y1="322.554" x2="37.002" y2="349.554" stroke="#001A23" stroke-width="5"/>
<line x1="37.1868" y1="348.61" x2="37.1868" y2="438.61" stroke="#001A23" stroke-width="5"/>
<line x1="161.187" y1="324.61" x2="161.187" y2="438.61" stroke="#001A23" stroke-width="5"/>
<line x1="38.6868" y1="436.11" x2="158.687" y2="436.11" stroke="#001A23" stroke-width="5"/>
</svg>
